<svg width="24" height="26" viewBox="0 0 24 26" fill="none" xmlns="http://www.w3.org/2000/svg">
<path d="M5.7808 22.8835C3.61641 22.8835 1.83559 21.0078 1.83559 18.7281V4.15538C1.83559 1.87569 3.61641 0 5.7808 0H7.15066C8.41093 0 9.53422 0.63485 10.2739 1.61598C10.3013 1.61598 10.3013 1.61598 10.3287 1.61598C10.7945 1.61598 11.2603 1.87569 11.4794 2.30855L12.2192 3.66482C12.3013 3.63596 12.3835 3.6071 12.4931 3.57825V2.01998C12.4931 1.24084 13.0959 0.605993 13.8356 0.605993C14.5753 0.605993 15.1781 1.24084 15.1781 2.01998V3.57825C15.2603 3.6071 15.3424 3.63596 15.452 3.66482L16.1644 2.30855C16.4109 1.87569 16.8493 1.61598 17.315 1.61598C17.5616 1.61598 17.7808 1.6737 17.9726 1.81798C18.2739 2.01998 18.4931 2.30855 18.6027 2.68368C18.6849 3.05882 18.6575 3.43396 18.4657 3.75139L17.726 5.10766C17.7808 5.16537 17.863 5.25194 17.9178 5.30966L19.2055 4.53052C19.3972 4.41509 19.6438 4.32852 19.863 4.32852C20.3287 4.32852 20.7945 4.58824 21.0137 5.02109C21.3698 5.68479 21.1507 6.5505 20.5205 6.9545L19.2329 7.73363C19.2602 7.8202 19.2876 7.90677 19.315 8.0222H20.8219C21.5616 8.0222 22.1644 8.65705 22.1644 9.43618C22.1644 10.2153 21.5616 10.8502 20.8219 10.8502H19.3424C19.315 10.9367 19.2876 11.0233 19.2603 11.1387L20.5479 11.9179C21.1781 12.293 21.3972 13.1587 21.0411 13.8513C20.7945 14.2841 20.3561 14.5438 19.8904 14.5438C19.6438 14.5438 19.4246 14.4861 19.2329 14.3418L17.9452 13.5627C17.8904 13.6204 17.8082 13.707 17.7534 13.7647L18.4931 15.121C18.6849 15.4384 18.7123 15.8135 18.6301 16.1887C18.5479 16.5638 18.3287 16.8524 18 17.0544C17.8082 17.1698 17.5616 17.2564 17.3424 17.2564C16.8767 17.2564 16.4109 16.9967 16.1918 16.5638L15.452 15.2075C15.3698 15.2364 15.2876 15.2653 15.1781 15.2941V16.8524C15.1781 17.6315 14.5753 18.2664 13.8356 18.2664C13.0959 18.2664 12.4931 17.6315 12.4931 16.8524V15.2941C12.4109 15.2653 12.3287 15.2364 12.2192 15.2075L11.4794 16.5638C11.3698 16.737 11.2602 16.8812 11.0959 16.9967V18.7858C11.0959 21.0655 9.31504 22.9412 7.15066 22.9412H5.7808V22.8835Z" fill="white"/>
<path d="M20.8219 9.03218H18.4931C18.4384 8.39733 18.3014 7.79134 18.0548 7.24306L20.0548 6.03107C20.2192 5.91565 20.274 5.71365 20.1918 5.51165C20.0822 5.33851 19.8904 5.2808 19.6986 5.36737L17.6986 6.57935C17.3699 6.05993 16.9589 5.62708 16.4658 5.2808L17.6164 3.17425C17.726 3.00111 17.6438 2.77025 17.4794 2.65483C17.3151 2.5394 17.0959 2.62597 16.9863 2.79911L15.8356 4.90566C15.3151 4.64595 14.7397 4.47281 14.137 4.44395V2.01998C14.137 1.81798 13.9726 1.64484 13.7808 1.64484C13.589 1.64484 13.4247 1.81798 13.4247 2.01998V4.47281C12.8219 4.53052 12.2466 4.6748 11.726 4.93452L10.5753 2.82797C10.5205 2.65483 10.3014 2.59711 10.137 2.68368C9.9726 2.79911 9.91781 3.00111 10 3.20311L11.1507 5.30965C10.6575 5.65594 10.2466 6.08879 9.91781 6.60821L7.91781 5.39623C7.75342 5.2808 7.53425 5.36737 7.42466 5.54051C7.31507 5.71365 7.39726 5.9445 7.56164 6.05993L9.56164 7.27192C9.31507 7.8202 9.15068 8.42619 9.12329 9.06104H6.79452C6.60274 9.06104 6.43836 9.23418 6.43836 9.43618C6.43836 9.63818 6.60274 9.81132 6.79452 9.81132H9.12329C9.17808 10.4462 9.31507 11.0522 9.56164 11.6004L7.56164 12.8124C7.39726 12.9279 7.34247 13.1299 7.42466 13.3319C7.53425 13.505 7.72603 13.5627 7.91781 13.4761L9.91781 12.2641C10.2466 12.7836 10.6575 13.2164 11.1507 13.5627L10 15.6693C9.89041 15.8424 9.9726 16.0732 10.137 16.1887C10.3014 16.3041 10.5205 16.2175 10.6301 16.0444L11.7808 13.9378C12.3014 14.1976 12.8767 14.3707 13.4795 14.3996V16.8524C13.4795 17.0544 13.6438 17.2275 13.8356 17.2275C14.0274 17.2275 14.1918 17.0544 14.1918 16.8524V14.3996C14.7945 14.3418 15.3699 14.1976 15.8904 13.9378L17.0411 16.0444C17.1507 16.2175 17.3425 16.2752 17.5342 16.1887C17.6986 16.0732 17.7534 15.8713 17.6712 15.6693L16.5205 13.5627C17.0137 13.2164 17.4247 12.7836 17.7534 12.2641L19.7534 13.4761C19.9178 13.5916 20.137 13.505 20.2466 13.3319C20.3562 13.1587 20.274 12.9279 20.1096 12.8124L18.0548 11.5427C18.3014 10.9944 18.4658 10.3885 18.4931 9.7536H20.8219C21.0137 9.7536 21.1781 9.58046 21.1781 9.37847C21.1781 9.20533 21.0137 9.03218 20.8219 9.03218Z" fill="url(#paint0_linear_30_20)"/>
<path d="M13.8904 4.79023C14.274 4.79023 14.6575 4.8768 15.0137 4.96337C15.3699 5.0788 15.6986 5.25194 15.9726 5.42508C16.5479 5.80022 16.9589 6.29078 17.2329 6.75249C17.5068 7.2142 17.6438 7.6182 17.6986 7.90677C17.726 8.05105 17.726 8.16648 17.7534 8.25305C17.7534 8.33962 17.7534 8.36847 17.7534 8.36847C17.7534 8.36847 17.7534 8.33962 17.726 8.25305C17.6986 8.16648 17.6712 8.07991 17.6164 7.93562C17.5342 7.67591 17.3425 7.30077 17.0685 6.89678C16.7671 6.49278 16.3562 6.08879 15.8082 5.77136C15.5342 5.62708 15.2329 5.48279 14.9041 5.39622C14.5753 5.30965 14.2192 5.25194 13.863 5.25194C13.5068 5.25194 13.1507 5.30965 12.8493 5.39622C12.5205 5.51165 12.2192 5.62708 11.9452 5.80022C11.3972 6.11764 10.9589 6.52164 10.6575 6.92563C10.3562 7.32963 10.1918 7.70477 10.1096 7.96448C10.0548 8.10876 10.0548 8.22419 10.0548 8.2819C10.0548 8.36848 10.0274 8.39733 10.0274 8.39733C10.0274 8.39733 10.0274 8.36848 10.0274 8.2819C10.0274 8.19533 10.0274 8.07991 10.0548 7.93562C10.0822 7.64705 10.2192 7.2142 10.4931 6.78135C10.7671 6.3485 11.1781 5.85793 11.7534 5.48279C12.0274 5.28079 12.3562 5.13651 12.7123 5.02108C13.0959 4.84794 13.4794 4.79023 13.8904 4.79023Z" fill="white"/>
<path d="M6.82188 21.8446H6.10955C4.30133 21.8446 2.82188 20.2864 2.82188 18.3818V4.50167C2.82188 2.59712 4.30133 1.03885 6.10955 1.03885H6.82188C8.6301 1.03885 10.1096 2.59712 10.1096 4.50167V18.3818C10.1096 20.2864 8.6301 21.8446 6.82188 21.8446Z" fill="url(#paint1_linear_30_20)"/>
<path opacity="0.5" d="M9.01366 17.3718H3.91777V4.29967C3.91777 3.11654 4.82188 2.16426 5.94517 2.16426H7.01366C8.13695 2.16426 9.04106 3.11654 9.04106 4.29967V17.3718H9.01366Z" fill="url(#paint2_linear_30_20)"/>
<path d="M8.30131 7.87791C8.43829 7.87791 8.54788 7.76249 8.54788 7.6182C8.54788 7.47392 8.43829 7.35849 8.30131 7.35849H7.3424V6.05993H8.30131C8.43829 6.05993 8.54788 5.94451 8.54788 5.80022C8.54788 5.65594 8.43829 5.54051 8.30131 5.54051H7.3424V4.2131C7.3424 3.63596 6.90405 3.17425 6.3561 3.17425C5.80816 3.17425 5.3698 3.63596 5.3698 4.2131V5.54051H4.49309C4.3561 5.54051 4.24651 5.65594 4.24651 5.80022C4.24651 5.94451 4.3561 6.05993 4.49309 6.05993H5.3698V7.35849H4.49309C4.3561 7.35849 4.24651 7.47392 4.24651 7.6182C4.24651 7.76249 4.3561 7.87791 4.49309 7.87791H5.3698V9.17647H4.49309C4.3561 9.17647 4.24651 9.2919 4.24651 9.43618C4.24651 9.58047 4.3561 9.69589 4.49309 9.69589H5.3698V10.9944H4.49309C4.3561 10.9944 4.24651 11.1099 4.24651 11.2542C4.24651 11.3984 4.3561 11.5139 4.49309 11.5139H5.3698V12.8124H4.49309C4.3561 12.8124 4.24651 12.9279 4.24651 13.0721C4.24651 13.2164 4.3561 13.3319 4.49309 13.3319H5.3698V14.6304H4.49309C4.3561 14.6304 4.24651 14.7458 4.24651 14.8901C4.24651 15.0344 4.3561 15.1498 4.49309 15.1498H5.3698V16.5638C4.71227 16.939 4.30131 17.6315 4.30131 18.4395C4.30131 19.6226 5.20542 20.5749 6.32871 20.5749C7.45199 20.5749 8.3561 19.6226 8.3561 18.4395C8.3561 17.6892 7.97254 16.9967 7.3698 16.6215V15.1498H8.32871C8.46569 15.1498 8.57528 15.0344 8.57528 14.8901C8.57528 14.7458 8.46569 14.6304 8.32871 14.6304H7.3698V13.3319H8.32871C8.46569 13.3319 8.57528 13.2164 8.57528 13.0721C8.57528 12.9279 8.46569 12.8124 8.32871 12.8124H7.3698V11.5139H8.32871C8.46569 11.5139 8.57528 11.3984 8.57528 11.2542C8.57528 11.1099 8.46569 10.9944 8.32871 10.9944H7.3698V9.69589H8.32871C8.46569 9.69589 8.57528 9.58047 8.57528 9.43618C8.57528 9.2919 8.46569 9.17647 8.32871 9.17647H7.3698V7.87791H8.30131V7.87791Z" fill="url(#paint3_linear_30_20)"/>
<path d="M6.8767 16.939V7.56049C6.57533 7.56049 6.21917 7.56049 5.8904 7.56049V16.8812C5.26026 17.0832 4.82191 17.6892 4.82191 18.4107C4.82191 19.3052 5.50684 19.9978 6.32875 19.9978C7.17807 19.9978 7.8356 19.2764 7.8356 18.4107C7.863 17.747 7.45204 17.1698 6.8767 16.939Z" fill="url(#paint4_linear_30_20)"/>
<path d="M6.87665 4.18425C6.87665 3.89568 6.65747 3.66482 6.3835 3.66482C6.10953 3.66482 5.89035 3.89568 5.89035 4.18425V7.56049C6.21912 7.56049 6.57528 7.56049 6.87665 7.56049V4.18425Z" fill="white"/>
<path opacity="0.6" d="M7.39725 18.0932C7.39725 18.6704 6.93149 19.1609 6.38355 19.1609C5.8356 19.1609 5.36985 18.6704 5.36985 18.0932C5.36985 17.5161 5.8356 17.0255 6.38355 17.0255C6.95889 17.0255 7.39725 17.5161 7.39725 18.0932Z" fill="url(#paint5_linear_30_20)"/>
<path opacity="0.6" d="M6.63008 7.76249H6.16432V16.6504H6.63008V7.76249Z" fill="url(#paint6_linear_30_20)"/>
<path opacity="0.5" d="M6.4657 21.8446C6.10954 21.8446 5.75337 21.8446 5.36981 21.7869C5.01365 21.7292 4.65748 21.6138 4.35611 21.4118C4.05474 21.2386 3.80817 21.0078 3.61639 20.7769C3.42461 20.5461 3.26022 20.3152 3.15063 20.0555C2.93146 19.5938 2.84926 19.1609 2.84926 18.8724C2.82187 18.7281 2.84926 18.6127 2.84926 18.5549C2.84926 18.4684 2.84926 18.4395 2.84926 18.4395C2.84926 18.4395 2.84926 18.4684 2.87666 18.5549C2.87666 18.6415 2.90406 18.7281 2.93146 18.8724C2.98625 19.1609 3.09584 19.5361 3.34241 19.9689C3.452 20.1709 3.64378 20.3729 3.83557 20.5749C4.02735 20.7769 4.27392 20.9501 4.54789 21.0943C4.82187 21.2386 5.12324 21.3252 5.452 21.3829C5.75337 21.4118 6.13694 21.4118 6.4931 21.4118C6.84926 21.4118 7.23283 21.4406 7.5342 21.3829C7.86296 21.3541 8.16433 21.2386 8.43831 21.0943C8.71228 20.9501 8.93146 20.7769 9.15064 20.5749C9.34242 20.3729 9.5068 20.1709 9.64379 19.9689C9.89036 19.5649 10.0273 19.1609 10.0547 18.8724C10.0821 18.7281 10.0821 18.6127 10.1095 18.5549C10.1095 18.4684 10.1369 18.4395 10.1369 18.4395C10.1369 18.4395 10.1369 18.4684 10.1369 18.5549C10.1369 18.6415 10.1369 18.7281 10.1369 18.8724C10.1095 19.1609 10.0547 19.5938 9.83557 20.0555C9.72598 20.2864 9.56159 20.5172 9.36981 20.7769C9.17803 21.0078 8.93146 21.2098 8.63009 21.4118C8.32872 21.5849 7.99995 21.7292 7.61639 21.7869C7.17803 21.8446 6.82187 21.8446 6.4657 21.8446Z" fill="#56BEFF"/>
<path d="M6.46572 2.13541C6.71229 2.13541 6.95887 2.13541 7.17805 2.13541C7.42462 2.13541 7.6712 2.19312 7.89037 2.30855C8.32873 2.51055 8.6301 2.85683 8.79448 3.17426C8.95887 3.49168 9.01366 3.78025 9.01366 3.98225C9.01366 4.06882 9.01366 4.15539 9.01366 4.2131C9.01366 4.27082 9.01366 4.29967 9.01366 4.29967C9.01366 4.29967 9.01366 4.27082 9.01366 4.2131C9.01366 4.15539 8.98626 4.09767 8.95887 4.0111C8.90407 3.83796 8.82188 3.57825 8.6301 3.31854C8.43832 3.05883 8.16435 2.82797 7.78078 2.68369C7.589 2.59712 7.39722 2.56826 7.17805 2.56826C6.93147 2.56826 6.71229 2.56826 6.46572 2.56826C6.21914 2.56826 5.97257 2.56826 5.75339 2.56826C5.53421 2.56826 5.34243 2.59712 5.15065 2.65483C4.76709 2.77026 4.49311 3.02997 4.30133 3.28968C4.10955 3.54939 4.02736 3.80911 3.97257 3.98225C3.94517 4.06882 3.94517 4.15539 3.91777 4.18424C3.91777 4.24196 3.91777 4.27081 3.91777 4.27081C3.91777 4.27081 3.91777 4.24196 3.91777 4.18424C3.91777 4.12653 3.91777 4.06882 3.91777 3.95339C3.91777 3.75139 3.97257 3.46282 4.13695 3.1454C4.30133 2.82797 4.6027 2.48169 5.04106 2.27969C5.23284 2.22198 5.47942 2.16427 5.75339 2.13541C5.97257 2.13541 6.21914 2.13541 6.46572 2.13541Z" fill="white"/>
<defs>
<linearGradient id="paint0_linear_30_20" x1="13.82" y1="17.1546" x2="13.82" y2="1.65843" gradientUnits="userSpaceOnUse">
<stop offset="0.0588235" stop-color="#FF9D00"/>
<stop offset="0.2957" stop-color="#FFA400"/>
<stop offset="0.6377" stop-color="#FFB700"/>
<stop offset="0.6952" stop-color="#FFBB00"/>
</linearGradient>
<linearGradient id="paint1_linear_30_20" x1="1.87865" y1="3.08032" x2="11.781" y2="19.3642" gradientUnits="userSpaceOnUse">
<stop stop-color="#C2E8FF"/>
<stop offset="1" stop-color="#38B3FF"/>
</linearGradient>
<linearGradient id="paint2_linear_30_20" x1="6.46361" y1="2.1778" x2="6.46361" y2="17.371" gradientUnits="userSpaceOnUse">
<stop offset="0.0534759" stop-color="white"/>
<stop offset="0.2359" stop-color="#C0C0C0"/>
<stop offset="0.5477" stop-color="#5A5A5A"/>
<stop offset="0.7645" stop-color="#191919"/>
<stop offset="0.8663"/>
</linearGradient>
<linearGradient id="paint3_linear_30_20" x1="2.57583" y1="5.30553" x2="10.5063" y2="18.3467" gradientUnits="userSpaceOnUse">
<stop stop-color="#7ACDFF"/>
<stop offset="0.1573" stop-color="#74C8FC"/>
<stop offset="0.3736" stop-color="#62BAF2"/>
<stop offset="0.6239" stop-color="#45A2E3"/>
<stop offset="0.898" stop-color="#1D82CD"/>
<stop offset="1" stop-color="#0C74C4"/>
</linearGradient>
<linearGradient id="paint4_linear_30_20" x1="4.81993" y1="13.7999" x2="7.86092" y2="13.7999" gradientUnits="userSpaceOnUse">
<stop offset="0.1337" stop-color="#EE1F00"/>
<stop offset="0.3007" stop-color="#F12D00"/>
<stop offset="0.6161" stop-color="#F75200"/>
<stop offset="0.9144" stop-color="#FF7B00"/>
</linearGradient>
<linearGradient id="paint5_linear_30_20" x1="6.397" y1="17.0247" x2="6.397" y2="19.1565" gradientUnits="userSpaceOnUse">
<stop offset="0.0534759" stop-color="#FFFF5F"/>
<stop offset="0.2359" stop-color="#C0C048"/>
<stop offset="0.5477" stop-color="#5A5A21"/>
<stop offset="0.7645" stop-color="#191909"/>
<stop offset="0.8663"/>
</linearGradient>
<linearGradient id="paint6_linear_30_20" x1="6.39682" y1="7.76163" x2="6.39682" y2="16.6351" gradientUnits="userSpaceOnUse">
<stop offset="0.0534759" stop-color="#FFFF5F"/>
<stop offset="0.2359" stop-color="#C0C048"/>
<stop offset="0.5477" stop-color="#5A5A21"/>
<stop offset="0.7645" stop-color="#191909"/>
<stop offset="0.8663"/>
</linearGradient>
</defs>
</svg>
