<svg width="13" height="15" viewBox="0 0 13 15" fill="none" xmlns="http://www.w3.org/2000/svg">
<g clip-path="url(#clip0_20_380)">
<path d="M3.86905 2.36287V2.67932C3.86905 3.62869 4.2449 4.55696 4.57653 5.37975C4.86395 6.09704 5.10714 6.68776 5.10714 7.25738C5.10714 8.60759 3.95748 9.70464 2.54252 9.70464C1.14966 9.70464 0 8.60759 0 7.25738C0 6.05485 1.5034 3.18565 3.11735 2.27848L3.86905 1.85654V2.36287Z" fill="url(#paint0_radial_20_380)"/>
<path d="M3.55961 2.67932C3.55961 3.69198 3.95757 4.64135 4.2892 5.48523C4.55451 6.16033 4.79771 6.75105 4.79771 7.25738C4.79771 8.43882 3.7807 9.40928 2.54261 9.40928C1.30451 9.40928 0.309612 8.43882 0.309612 7.25738C0.309612 6.13924 1.7688 3.37552 3.2722 2.53164L3.55961 2.36287V2.67932Z" fill="white"/>
<path d="M4.20082 6.68776C4.20082 6.28692 4.09028 5.82278 3.93551 5.29536C4.22293 5.99156 4.48824 6.62447 4.48824 7.1308C4.48824 8.22785 3.55966 9.09283 2.43211 9.09283C2.3879 9.09283 2.32157 9.09283 2.27735 9.09283C3.33858 9.00844 4.20082 7.97468 4.20082 6.68776Z" fill="#D1DCEE"/>
<path d="M2.21111 4.49367C2.189 4.45147 2.21111 4.34599 2.25533 4.2827C2.29955 4.19831 2.36587 4.17721 2.41009 4.21941C2.4322 4.2616 2.4322 4.36709 2.36587 4.43038C2.32166 4.49367 2.25533 4.53586 2.21111 4.49367Z" fill="#F1E6DD"/>
<path d="M1.54775 5.56962C1.50353 5.50633 1.54775 5.33755 1.63619 5.21097C1.72462 5.08439 1.83517 5.04219 1.90149 5.10548C1.94571 5.16878 1.9236 5.33755 1.81306 5.46413C1.72462 5.61181 1.61408 5.65401 1.54775 5.56962Z" fill="#F1E6DD"/>
<path d="M7.34011 0.295359V0.485232C7.34011 1.05485 7.5612 1.62447 7.76018 2.1097C7.93705 2.53165 8.09181 2.91139 8.09181 3.24895C8.09181 4.05063 7.40644 4.72574 6.54419 4.72574C5.70406 4.72574 4.99657 4.07173 4.99657 3.24895C4.99657 2.51055 5.90304 0.801688 6.87583 0.253165L7.318 0V0.295359H7.34011Z" fill="url(#paint1_radial_20_380)"/>
<path d="M7.16327 0.50633C7.16327 1.11814 7.40647 1.68776 7.60544 2.19409C7.76021 2.59494 7.91497 2.95359 7.91497 3.27004C7.91497 3.98734 7.29592 4.55696 6.56633 4.55696C5.81463 4.55696 5.21769 3.96625 5.21769 3.27004C5.21769 2.59494 6.10204 0.928271 7.00851 0.421942L7.18538 0.316456V0.50633H7.16327Z" fill="#FAFBFC"/>
<path d="M7.53896 2.91139C7.53896 2.65823 7.47263 2.38397 7.36209 2.06751C7.53896 2.48945 7.69372 2.8692 7.69372 3.16456C7.69372 3.81856 7.141 4.34599 6.45563 4.34599C6.43352 4.34599 6.3893 4.34599 6.36719 4.34599C7.03046 4.3038 7.53896 3.67089 7.53896 2.91139Z" fill="#D1DCEE"/>
<path d="M6.34523 1.58228C6.32312 1.56118 6.34523 1.49789 6.36734 1.4557C6.38945 1.4135 6.43367 1.39241 6.45578 1.4135C6.47789 1.4346 6.45578 1.49789 6.43367 1.54009C6.41156 1.58228 6.36734 1.60338 6.34523 1.58228Z" fill="#F1E6DD"/>
<path d="M5.94731 2.23629C5.9252 2.19409 5.94731 2.10971 5.99153 2.02532C6.05786 1.94093 6.12418 1.91983 6.14629 1.96203C6.1684 2.00422 6.14629 2.10971 6.10208 2.173C6.05786 2.25739 5.96942 2.27848 5.94731 2.23629Z" fill="#F1E6DD"/>
<path d="M7.73805 5.27426V5.42194C7.73805 5.84388 7.91492 6.26582 8.04757 6.64557C8.18022 6.96202 8.29077 7.23629 8.29077 7.48945C8.29077 8.10127 7.78226 8.5865 7.14111 8.5865C6.49995 8.5865 5.99145 8.10127 5.99145 7.48945C5.99145 6.94093 6.67682 5.65401 7.40641 5.25316L7.73805 5.06329V5.27426Z" fill="url(#paint2_radial_20_380)"/>
<path d="M7.60536 5.42194C7.60536 5.86498 7.78223 6.30802 7.93699 6.68776C8.06964 6.98312 8.15808 7.25738 8.15808 7.48945C8.15808 8.01688 7.69379 8.45992 7.14107 8.45992C6.58835 8.45992 6.12407 8.01688 6.12407 7.48945C6.12407 6.98312 6.78733 5.7384 7.4727 5.35865L7.60536 5.29536V5.42194Z" fill="white"/>
<path d="M7.89278 7.23629C7.89278 7.04641 7.84857 6.83544 7.76013 6.60337C7.89278 6.91983 8.00333 7.19409 8.00333 7.42616C8.00333 7.91139 7.58326 8.31224 7.07476 8.31224C7.05265 8.31224 7.03054 8.31224 7.00843 8.31224C7.49483 8.27004 7.89278 7.80591 7.89278 7.23629Z" fill="#D1DCEE"/>
<path d="M7.00839 6.24473C6.98628 6.22363 7.00839 6.18144 7.0305 6.13924C7.05261 6.09705 7.07472 6.09705 7.09683 6.11814C7.11893 6.13924 7.09683 6.18143 7.07472 6.22363C7.05261 6.24473 7.00839 6.24473 7.00839 6.24473Z" fill="#F1E6DD"/>
<path d="M6.69897 6.72996C6.67686 6.70886 6.69897 6.62447 6.74319 6.56118C6.78741 6.49789 6.83162 6.47679 6.85373 6.51899C6.87584 6.54008 6.85373 6.62447 6.80951 6.68776C6.7653 6.72996 6.72108 6.75105 6.69897 6.72996Z" fill="#F1E6DD"/>
<path d="M10.6565 8.62869V8.77637C10.6565 9.19831 10.8334 9.62025 10.9661 10C11.0987 10.3165 11.2093 10.5907 11.2093 10.8439C11.2093 11.4557 10.7008 11.9409 10.0596 11.9409C9.41845 11.9409 8.90995 11.4557 8.90995 10.8439C8.90995 10.2954 9.59532 9.00844 10.3249 8.6076L10.6565 8.41772V8.62869V8.62869Z" fill="url(#paint3_radial_20_380)"/>
<path d="M10.5239 8.77637C10.5239 9.21941 10.7007 9.66245 10.8555 10.0422C10.9881 10.3376 11.0766 10.6118 11.0766 10.8439C11.0766 11.3713 10.6123 11.8143 10.0596 11.8143C9.50685 11.8143 9.04256 11.3713 9.04256 10.8439C9.04256 10.3376 9.70583 9.09283 10.3912 8.71308L10.5239 8.64979V8.77637Z" fill="#F0F6FA"/>
<path d="M10.8113 10.5907C10.8113 10.4008 10.7671 10.1899 10.6786 9.95781C10.8113 10.2743 10.9218 10.5485 10.9218 10.7806C10.9218 11.2658 10.5018 11.6667 9.99325 11.6667C9.97115 11.6667 9.94904 11.6667 9.92693 11.6667C10.4133 11.6245 10.8113 11.1603 10.8113 10.5907Z" fill="#D1DCEE"/>
<path d="M9.90487 9.59916C9.88277 9.57806 9.90487 9.53587 9.92698 9.49367C9.94909 9.45148 9.9712 9.45148 9.99331 9.47258C10.0154 9.49367 9.99331 9.53587 9.9712 9.57806C9.94909 9.59916 9.92698 9.62025 9.90487 9.59916Z" fill="#F1E6DD"/>
<path d="M9.61747 10.0844C9.59536 10.0633 9.61747 9.9789 9.66169 9.91561C9.7059 9.85232 9.75012 9.83122 9.77223 9.87342C9.79434 9.89452 9.77223 9.9789 9.72801 10.0422C9.68379 10.1055 9.63958 10.1055 9.61747 10.0844Z" fill="#F1E6DD"/>
<path d="M6.61042 9.64135V9.87342C6.61042 10.5696 6.87573 11.2447 7.11892 11.8565C7.3179 12.3629 7.51688 12.827 7.51688 13.2278C7.51688 14.2194 6.67675 15 5.65974 15C4.62063 15 3.8026 14.1983 3.8026 13.2278C3.8026 12.3418 4.90804 10.2532 6.07981 9.57806L6.63253 9.2616V9.64135H6.61042Z" fill="url(#paint4_radial_20_380)"/>
<path d="M6.38936 9.87342C6.38936 10.6118 6.67677 11.308 6.91997 11.9198C7.11895 12.4051 7.29582 12.8481 7.29582 13.2068C7.29582 14.0717 6.56623 14.7679 5.65977 14.7679C4.7533 14.7679 4.02371 14.0717 4.02371 13.2068C4.02371 12.384 5.10704 10.3587 6.19038 9.74684L6.41147 9.62025V9.87342H6.38936Z" fill="#FCFEFF"/>
<path d="M6.85368 12.8059C6.85368 12.5105 6.76524 12.173 6.6547 11.7932C6.85368 12.2996 7.05266 12.7637 7.05266 13.1224C7.05266 13.9241 6.38939 14.557 5.54925 14.557C5.50504 14.557 5.48293 14.557 5.43871 14.557C6.21252 14.4937 6.85368 13.7342 6.85368 12.8059Z" fill="#D1DCEE"/>
<path d="M5.39429 11.1814C5.37218 11.1603 5.39429 11.0759 5.4164 11.0338C5.46062 10.9705 5.50483 10.9494 5.52694 10.9916C5.54905 11.0127 5.52694 11.097 5.50483 11.1392C5.48272 11.2025 5.4164 11.2236 5.39429 11.1814Z" fill="#F1E6DD"/>
<path d="M4.90804 11.9831C4.86382 11.9409 4.90804 11.8143 4.97437 11.73C5.04069 11.6456 5.12913 11.6034 5.15124 11.6456C5.19546 11.6878 5.17335 11.8143 5.08491 11.8987C5.04069 12.0042 4.95226 12.0253 4.90804 11.9831Z" fill="#F1E6DD"/>
<path d="M12.0935 1.64557V1.87764C12.0935 2.57384 12.3588 3.24894 12.602 3.86076C12.801 4.36709 13 4.83122 13 5.23207C13 6.22363 12.1598 7.00422 11.1428 7.00422C10.1037 7.00422 9.28569 6.20253 9.28569 5.23207C9.28569 4.34599 10.3911 2.25738 11.5629 1.58228L12.1156 1.26582V1.64557H12.0935Z" fill="url(#paint5_radial_20_380)"/>
<path d="M11.8725 1.87764C11.8725 2.61603 12.1599 3.31224 12.4031 3.92405C12.602 4.40928 12.7789 4.85232 12.7789 5.21097C12.7789 6.07595 12.0493 6.79325 11.1208 6.79325C10.2143 6.79325 9.4847 6.09705 9.4847 5.21097C9.4847 4.38819 10.568 2.36287 11.6514 1.75106L11.8725 1.62447V1.87764Z" fill="#FAFAFA"/>
<path d="M12.3368 4.81013C12.3368 4.51477 12.2483 4.17722 12.1378 3.79747C12.3368 4.3038 12.5357 4.76793 12.5357 5.12658C12.5357 5.92827 11.8725 6.56118 11.0323 6.56118C10.9881 6.56118 10.966 6.56118 10.9218 6.56118C11.6956 6.51899 12.3368 5.75949 12.3368 4.81013Z" fill="#D1DCEE"/>
<path d="M10.8774 3.20675C10.8553 3.18566 10.8774 3.10127 10.8995 3.05907C10.9437 2.99578 10.9879 2.97469 11.01 3.01688C11.0321 3.03798 11.01 3.12236 10.9879 3.16456C10.9437 3.20675 10.8995 3.22785 10.8774 3.20675Z" fill="#F1E6DD"/>
<path d="M10.3911 4.00844C10.3469 3.96625 10.3911 3.83967 10.4575 3.75528C10.5238 3.67089 10.6122 3.6287 10.6343 3.67089C10.6785 3.71308 10.6564 3.83967 10.568 3.92405C10.5238 4.00844 10.4353 4.05064 10.3911 4.00844Z" fill="#F1E6DD"/>
</g>
<defs>
<radialGradient id="paint0_radial_20_380" cx="0" cy="0" r="1" gradientUnits="userSpaceOnUse" gradientTransform="translate(0.216709 4.2189) scale(8.32155 7.94072)">
<stop offset="0.005618" stop-color="#D3DFF2"/>
<stop offset="0.5393" stop-color="#1998D5"/>
<stop offset="1" stop-color="#0073BB"/>
</radialGradient>
<radialGradient id="paint1_radial_20_380" cx="0" cy="0" r="1" gradientUnits="userSpaceOnUse" gradientTransform="translate(5.03763 1.32454) scale(5.00824 4.77904)">
<stop offset="0.005618" stop-color="#D3DFF2"/>
<stop offset="0.5393" stop-color="#1998D5"/>
<stop offset="1" stop-color="#0073BB"/>
</radialGradient>
<radialGradient id="paint2_radial_20_380" cx="0" cy="0" r="1" gradientUnits="userSpaceOnUse" gradientTransform="translate(6.10217 6.11946) scale(3.74059 3.5694)">
<stop offset="0.005618" stop-color="#D3DFF2"/>
<stop offset="0.5393" stop-color="#1998D5"/>
<stop offset="1" stop-color="#0073BB"/>
</radialGradient>
<radialGradient id="paint3_radial_20_380" cx="0" cy="0" r="1" gradientUnits="userSpaceOnUse" gradientTransform="translate(9.01846 9.47895) scale(3.74073 3.56954)">
<stop offset="0.005618" stop-color="#D3DFF2"/>
<stop offset="0.5393" stop-color="#1998D5"/>
<stop offset="1" stop-color="#0073BB"/>
</radialGradient>
<radialGradient id="paint4_radial_20_380" cx="0" cy="0" r="1" gradientUnits="userSpaceOnUse" gradientTransform="translate(3.85694 10.9213) scale(6.07825 5.80009)">
<stop offset="0.005618" stop-color="#D3DFF2"/>
<stop offset="0.5393" stop-color="#1998D5"/>
<stop offset="1" stop-color="#0073BB"/>
</radialGradient>
<radialGradient id="paint5_radial_20_380" cx="0" cy="0" r="1" gradientUnits="userSpaceOnUse" gradientTransform="translate(9.33523 2.9367) scale(6.0783 5.80013)">
<stop offset="0.005618" stop-color="#D3DFF2"/>
<stop offset="0.5393" stop-color="#1998D5"/>
<stop offset="1" stop-color="#0073BB"/>
</radialGradient>
<clipPath id="clip0_20_380">
<rect width="13" height="15" fill="white"/>
</clipPath>
</defs>
</svg>
