<svg width="20" height="16" viewBox="0 0 20 16" fill="none" xmlns="http://www.w3.org/2000/svg">
<path d="M16.2919 5.696C16.3068 5.568 16.3068 5.41867 16.3068 5.29067C16.3068 2.368 14.5793 0 12.4646 0C10.752 0 9.29263 1.57867 8.80119 3.73333C8.25019 3.15733 7.53537 2.816 6.77588 2.816C5.01862 2.816 3.58898 4.62933 3.58898 6.848C3.58898 7.04 3.60387 7.232 3.61876 7.424C1.53388 7.89333 0 9.55733 0 11.4987C0 13.824 2.18913 15.7227 4.88459 15.7227C5.83768 15.7227 6.71631 15.488 7.46091 15.0827C8.26508 15.616 9.26284 15.9147 10.3351 15.9147C11.3626 15.9147 12.3157 15.6373 13.105 15.1467C13.8049 15.7013 14.6538 16 15.5622 16C18.0194 16 20 13.6747 20 10.816C20 8.256 18.3917 6.10133 16.2919 5.696Z" fill="url(#paint0_radial_24_6)"/>
<path d="M9.1286 4.09603L9.00947 4.60803L8.69673 4.28803C8.2053 3.77603 7.57983 3.4987 6.93947 3.4987C5.43538 3.4987 4.19934 5.0347 4.19934 6.91203C4.19934 7.06137 4.21423 7.23203 4.22912 7.4027L4.2738 7.7867L4.02064 7.8507C2.14424 8.27736 0.83374 9.7067 0.83374 11.3067C0.83374 13.2907 2.7846 14.912 5.16732 14.912C6.00128 14.912 6.80545 14.72 7.50537 14.336L7.60962 14.272L7.71386 14.336C8.47335 14.8267 9.36688 15.0827 10.32 15.0827C11.2284 15.0827 12.0921 14.848 12.8218 14.4L12.941 14.336L13.0601 14.4214C13.7005 14.9334 14.46 15.1894 15.2492 15.1894C17.4086 15.1894 19.1658 13.1627 19.1658 10.6667C19.1658 8.44803 17.7958 6.59203 15.9045 6.20803L15.6513 6.16536L15.6811 5.44003C15.6811 2.90136 14.177 0.832031 12.3453 0.832031C10.8561 0.832031 9.56047 2.1547 9.1286 4.09603Z" fill="url(#paint1_radial_24_6)"/>
<path d="M18.6599 10.5174C18.6599 8.72539 17.4983 7.18939 15.8899 6.89072L15.1155 6.74139C15.1155 6.74139 15.1602 5.33338 15.1602 5.29072C15.1602 3.20005 13.9242 1.51472 12.3903 1.51472C11.601 1.51472 10.8862 1.96272 10.365 2.70939C10.7969 2.32538 11.3181 2.09072 11.8691 2.09072C13.3881 2.09072 14.639 3.77605 14.639 5.86672C14.639 5.90939 14.5943 7.31739 14.5943 7.31739L15.3687 7.46672C16.9771 7.78672 18.1386 9.30139 18.1386 11.0934C18.1386 11.9467 17.8706 12.7147 17.4387 13.3547C18.1833 12.6721 18.6599 11.6481 18.6599 10.5174Z" fill="url(#paint2_radial_24_6)"/>
<path d="M10.5585 5.07733C10.5585 4.992 10.5733 4.90666 10.5733 4.8C10.5733 2.90133 9.45644 1.36533 8.08637 1.36533C6.96947 1.36533 6.03127 2.38933 5.71854 3.79733C5.36113 3.41333 4.89948 3.2 4.40804 3.2C3.26136 3.2 2.33805 4.37333 2.33805 5.80266C2.33805 5.93066 2.35294 6.05866 2.35294 6.18666C0.997766 6.50666 0 7.57333 0 8.85333C0 10.368 1.41474 11.584 3.15711 11.584C3.76768 11.584 4.34847 11.4347 4.82502 11.1787C5.34624 11.52 5.9866 11.712 6.68652 11.712C7.35666 11.712 7.96724 11.52 8.47357 11.2213C8.93522 11.584 9.47133 11.776 10.067 11.776C11.6605 11.776 12.9412 10.2613 12.9412 8.40533C12.9561 6.74133 11.9136 5.35466 10.5585 5.07733Z" fill="url(#paint3_radial_24_6)"/>
<path d="M5.91191 4.05329L5.83745 4.39462L5.64386 4.18129C5.33112 3.83996 4.91415 3.66929 4.51206 3.66929C3.52919 3.66929 2.73991 4.67196 2.73991 5.88796C2.73991 5.99462 2.73991 6.10129 2.7548 6.20796L2.78459 6.46396L2.60588 6.50662C1.38473 6.74129 0.535889 7.67996 0.535889 8.72529C0.535889 10.0053 1.80171 11.0506 3.35048 11.0506C3.8866 11.0506 4.40782 10.9226 4.86947 10.6666L4.94393 10.624L5.0035 10.6666C5.49494 10.9866 6.07573 11.1573 6.6863 11.1573C7.26709 11.1573 7.83299 11.008 8.30953 10.7093L8.38399 10.6666L8.45845 10.7306C8.87543 11.0506 9.36687 11.2213 9.8732 11.2213C11.273 11.2213 12.4197 9.89862 12.4197 8.29862C12.4197 6.86929 11.5262 5.65329 10.3051 5.41862L10.1413 5.39729L10.1561 4.92796C10.1561 3.28529 9.18816 1.94129 7.9968 1.94129C7.02882 1.94129 6.19486 2.77329 5.91191 4.05329Z" fill="url(#paint4_radial_24_6)"/>
<path d="M12.0925 8.19197C12.0925 7.03997 11.333 6.0373 10.3054 5.8453L9.81398 5.73864C9.81398 5.73864 9.84376 4.8213 9.84376 4.79997C9.84376 3.45597 9.03959 2.34664 8.05672 2.34664C7.55039 2.34664 7.07384 2.6453 6.74622 3.11464C7.02916 2.85864 7.37168 2.73064 7.72909 2.73064C8.71197 2.73064 9.51614 3.81863 9.51614 5.18397C9.51614 5.22664 9.48635 6.12264 9.48635 6.12264L9.97779 6.2293C11.0202 6.4213 11.7648 7.42397 11.7648 8.57597C11.7648 9.13064 11.601 9.6213 11.3181 10.0266C11.7797 9.59997 12.0925 8.93864 12.0925 8.19197Z" fill="url(#paint5_radial_24_6)"/>
<defs>
<radialGradient id="paint0_radial_24_6" cx="0" cy="0" r="1" gradientUnits="userSpaceOnUse" gradientTransform="translate(13.6696 19.5652) scale(15.7122 22.5083)">
<stop offset="0.005618" stop-color="#A9D1EF"/>
<stop offset="0.5393" stop-color="#1998D5"/>
<stop offset="1" stop-color="#0073BB"/>
</radialGradient>
<radialGradient id="paint1_radial_24_6" cx="0" cy="0" r="1" gradientUnits="userSpaceOnUse" gradientTransform="translate(17.0279 5.21686) scale(10.8574 15.8876)">
<stop offset="0.005618" stop-color="#A9D1EF"/>
<stop offset="0.5393" stop-color="#1998D5"/>
<stop offset="1" stop-color="#0073BB"/>
</radialGradient>
<radialGradient id="paint2_radial_24_6" cx="0" cy="0" r="1" gradientUnits="userSpaceOnUse" gradientTransform="translate(14.4939 6.69023) scale(28.7717 23.1003)">
<stop stop-color="#CBEBFB"/>
<stop offset="0.7767" stop-color="#BDCDDA"/>
<stop offset="1" stop-color="#B9C4D0"/>
</radialGradient>
<radialGradient id="paint3_radial_24_6" cx="0" cy="0" r="1" gradientUnits="userSpaceOnUse" gradientTransform="translate(13.6023 19.3945) scale(15.735 22.4161)">
<stop offset="0.005618" stop-color="#A9D1EF"/>
<stop offset="0.5393" stop-color="#1998D5"/>
<stop offset="1" stop-color="#0073BB"/>
</radialGradient>
<radialGradient id="paint4_radial_24_6" cx="0" cy="0" r="1" gradientUnits="userSpaceOnUse" gradientTransform="translate(16.9337 5.06452) scale(10.8531 15.9278)">
<stop offset="0.005618" stop-color="#A9D1EF"/>
<stop offset="0.5393" stop-color="#1998D5"/>
<stop offset="1" stop-color="#0073BB"/>
</radialGradient>
<radialGradient id="paint5_radial_24_6" cx="0" cy="0" r="1" gradientUnits="userSpaceOnUse" gradientTransform="translate(10.5318 5.49765) scale(7.73213 11.0765)">
<stop stop-color="#CBEBFB"/>
<stop offset="0.7767" stop-color="#BDCDDA"/>
<stop offset="1" stop-color="#B9C4D0"/>
</radialGradient>
</defs>
</svg>
