<svg width="20" height="26" viewBox="0 0 20 26" fill="none" xmlns="http://www.w3.org/2000/svg">
<path d="M17.0725 2.66709C15.1837 0.947276 12.6721 0 10.001 0C7.32937 0 4.81836 0.947276 2.92949 2.66709C-0.566114 5.84937 -1.00052 11.8369 1.98871 15.4646L10.001 26L18.0013 15.4793C21.0025 11.8369 20.5681 5.84937 17.0725 2.66709ZM17.1555 14.9242L10.001 24.3315L2.8351 14.9095C0.123829 11.618 0.512345 6.21071 3.66741 3.3385C5.35915 1.79816 7.60838 0.94965 10.001 0.94965C12.3936 0.94965 14.6429 1.79816 16.3351 3.3385C19.4902 6.21071 19.8787 11.618 17.1555 14.9242Z" fill="#272722"/>
</svg>
