<svg width="16" height="16" viewBox="0 0 16 16" fill="none" xmlns="http://www.w3.org/2000/svg">
<path d="M3.7474 11.4915V11.6858C3.7474 12.2688 4.02439 12.8389 4.26879 13.3441C4.4806 13.7846 4.65983 14.1474 4.65983 14.4972C4.65983 15.3263 3.81258 16 2.76981 16C1.72704 16 0.879785 15.3263 0.879785 14.4972C0.879785 13.7587 1.98773 11.9968 3.17714 11.4397L3.73111 11.1806V11.4915H3.7474Z" fill="url(#paint0_radial_24_3)"/>
<path d="M3.51936 11.6858C3.51936 12.3077 3.81264 12.8907 4.05704 13.4089C4.25256 13.8235 4.43178 14.1862 4.43178 14.4972C4.43178 15.2227 3.68229 15.8186 2.76987 15.8186C1.85745 15.8186 1.10795 15.2227 1.10795 14.4972C1.10795 13.8105 2.1996 12.1133 3.30755 11.5822L3.51936 11.4785V11.6858Z" fill="url(#paint1_radial_24_3)"/>
<path d="M3.99182 14.1474C3.99182 13.9012 3.91035 13.6162 3.7963 13.2923C4.00811 13.7198 4.20363 14.1085 4.20363 14.4194C4.20363 15.0802 3.51931 15.6243 2.68836 15.6243C2.65577 15.6243 2.60689 15.6243 2.5743 15.6243C3.35638 15.5725 3.99182 14.9376 3.99182 14.1474Z" fill="#D1DCEE"/>
<path d="M2.54182 12.8C2.52552 12.7741 2.52552 12.7093 2.5744 12.6704C2.60699 12.6186 2.65587 12.6057 2.68846 12.6316C2.70475 12.6575 2.70475 12.7223 2.65587 12.7611C2.60699 12.8 2.55811 12.8259 2.54182 12.8Z" fill="#F1E6DD"/>
<path d="M2.03667 13.4608C2.00408 13.4219 2.03667 13.3182 2.10184 13.2405C2.16701 13.1628 2.24848 13.1369 2.29736 13.1757C2.32995 13.2146 2.31365 13.3182 2.23219 13.396C2.16701 13.4737 2.08555 13.4996 2.03667 13.4608Z" fill="#F1E6DD"/>
<path d="M10.493 7.52714V7.64374C10.493 7.99353 10.6559 8.34333 10.8026 8.64131C10.9329 8.90042 11.047 9.13362 11.047 9.34091C11.047 9.83321 10.5419 10.2478 9.90645 10.2478C9.2873 10.2478 8.76592 9.84617 8.76592 9.34091C8.76592 8.88746 9.43394 7.83807 10.1508 7.50123L10.4767 7.34576V7.52714H10.493Z" fill="url(#paint2_radial_24_3)"/>
<path d="M10.3463 7.64374C10.3463 8.01944 10.5255 8.36924 10.6722 8.68017C10.7862 8.92633 10.9003 9.14657 10.9003 9.3409C10.9003 9.78139 10.4441 10.1312 9.90638 10.1312C9.35241 10.1312 8.91249 9.76844 8.91249 9.3409C8.91249 8.92633 9.56422 7.90285 10.2322 7.59191L10.3626 7.52714V7.64374H10.3463Z" fill="url(#paint3_radial_24_3)"/>
<path d="M10.6396 9.12067C10.6396 8.96521 10.5908 8.79679 10.5093 8.60245C10.6396 8.86156 10.7537 9.09476 10.7537 9.27614C10.7537 9.67776 10.3464 10.0016 9.84126 10.0016C9.82497 10.0016 9.79238 10.0016 9.77609 10.0016C10.2486 9.98869 10.6396 9.60003 10.6396 9.12067Z" fill="#D1DCEE"/>
<path d="M9.75974 8.30446C9.74344 8.2915 9.75974 8.25264 9.77603 8.22673C9.79232 8.20082 9.82491 8.18786 9.8412 8.20082C9.85749 8.21377 9.8412 8.25264 9.82491 8.27855C9.79232 8.31742 9.75974 8.33037 9.75974 8.30446Z" fill="#F1E6DD"/>
<path d="M9.46646 8.70609C9.45017 8.68018 9.46646 8.62836 9.49905 8.57654C9.54793 8.52471 9.59681 8.51176 9.6131 8.53767C9.62939 8.56358 9.6131 8.62836 9.58051 8.66722C9.53163 8.71905 9.48275 8.732 9.46646 8.70609Z" fill="#F1E6DD"/>
<path d="M10.7697 10.6753C10.7697 10.9344 10.9 11.1936 10.9978 11.4267C11.0956 11.6211 11.177 11.7895 11.177 11.945C11.177 12.3207 10.8023 12.6187 10.3298 12.6187C9.85726 12.6187 9.48252 12.3207 9.48252 11.945C9.48252 11.6081 9.98761 10.8178 10.5253 10.5717L10.7697 10.4551V10.6753Z" fill="url(#paint4_radial_24_3)"/>
<path d="M10.6719 10.6624C10.6719 10.9344 10.8022 11.2065 10.9163 11.4397C11.014 11.6211 11.0792 11.7895 11.0792 11.932C11.0792 12.2559 10.7371 12.528 10.3297 12.528C9.9224 12.528 9.58024 12.2559 9.58024 11.932C9.58024 11.6211 10.069 10.8567 10.5741 10.6235L10.6719 10.5846V10.6624Z" fill="url(#paint5_radial_24_3)"/>
<path d="M10.8838 11.7766C10.8838 11.66 10.8512 11.5304 10.786 11.3879C10.8838 11.5822 10.9652 11.7507 10.9652 11.8932C10.9652 12.1911 10.6557 12.4373 10.2809 12.4373C10.2646 12.4373 10.2483 12.4373 10.232 12.4373C10.6068 12.4114 10.8838 12.1264 10.8838 11.7766Z" fill="#D1DCEE"/>
<path d="M10.2319 11.1676C10.2156 11.1547 10.2319 11.1288 10.2482 11.1029C10.2645 11.0769 10.2808 11.0769 10.297 11.0899C10.3133 11.1029 10.297 11.1288 10.2808 11.1547C10.2645 11.1676 10.2319 11.1806 10.2319 11.1676Z" fill="#F1E6DD"/>
<path d="M10.0038 11.4656C9.98754 11.4526 10.0038 11.4008 10.0364 11.362C10.069 11.3231 10.1016 11.3101 10.1179 11.336C10.1342 11.349 10.1179 11.4008 10.0853 11.4397C10.069 11.4786 10.0201 11.4915 10.0038 11.4656Z" fill="#F1E6DD"/>
<path d="M8.01639 10.8178C8.01639 11.0769 8.14674 11.336 8.2445 11.5692C8.34225 11.7636 8.42372 11.932 8.42372 12.0874C8.42372 12.4632 8.04898 12.7611 7.57647 12.7611C7.10396 12.7611 6.72922 12.4632 6.72922 12.0874C6.72922 11.7506 7.23431 10.9603 7.77199 10.7142L8.01639 10.5976V10.8178Z" fill="url(#paint6_radial_24_3)"/>
<path d="M7.91859 10.8178C7.91859 11.0899 8.04893 11.3619 8.16299 11.5951C8.26075 11.7765 8.32592 11.9449 8.32592 12.0874C8.32592 12.4113 7.98376 12.6834 7.57643 12.6834C7.1691 12.6834 6.82694 12.4113 6.82694 12.0874C6.82694 11.7765 7.31574 11.0121 7.82083 10.7789L7.91859 10.7401V10.8178Z" fill="url(#paint7_radial_24_3)"/>
<path d="M8.13046 11.932C8.13046 11.8154 8.09787 11.6858 8.0327 11.5433C8.13046 11.7376 8.21192 11.906 8.21192 12.0486C8.21192 12.3465 7.90235 12.5927 7.52761 12.5927C7.51131 12.5927 7.49502 12.5927 7.47873 12.5927C7.85347 12.5668 8.13046 12.2818 8.13046 11.932Z" fill="#D1DCEE"/>
<path d="M7.47857 11.3231C7.46228 11.3101 7.47857 11.2842 7.49487 11.2583C7.51116 11.2324 7.52745 11.2324 7.54375 11.2453C7.56004 11.2583 7.54375 11.2842 7.52745 11.3101C7.51116 11.3231 7.47857 11.336 7.47857 11.3231Z" fill="#F1E6DD"/>
<path d="M7.25053 11.6211C7.23423 11.6081 7.25053 11.5563 7.28311 11.5174C7.3157 11.4786 7.34829 11.4656 7.36458 11.4915C7.38087 11.5045 7.36458 11.5563 7.33199 11.5952C7.3157 11.634 7.26682 11.634 7.25053 11.6211Z" fill="#F1E6DD"/>
<path d="M2.57429 7.54009C2.57429 7.96762 2.76981 8.38219 2.94904 8.7579C3.09568 9.06883 3.24232 9.35385 3.24232 9.60001C3.24232 10.2089 2.62317 10.6883 1.87368 10.6883C1.1079 10.6883 0.488752 10.196 0.488752 9.58705C0.488752 9.04292 1.30342 7.76033 2.16696 7.34576L2.57429 7.15142V7.54009Z" fill="url(#paint8_radial_24_3)"/>
<path d="M2.41137 7.54008C2.41137 7.99352 2.62318 8.42106 2.80241 8.79676C2.94905 9.09474 3.07939 9.36681 3.07939 9.58705C3.07939 10.1182 2.54172 10.5458 1.8574 10.5458C1.18937 10.5587 0.651696 10.1312 0.651696 9.58705C0.651696 9.08178 1.45007 7.83806 2.24844 7.46235L2.41137 7.38462V7.54008Z" fill="url(#paint9_radial_24_3)"/>
<path d="M2.75349 9.34091C2.75349 9.15954 2.68831 8.95225 2.60685 8.71905C2.75349 9.02998 2.90013 9.315 2.90013 9.53525C2.90013 10.0276 2.41133 10.4162 1.79218 10.4162C1.7596 10.4162 1.7433 10.4162 1.71072 10.4162C2.29728 10.3774 2.75349 9.91096 2.75349 9.34091Z" fill="#D1DCEE"/>
<path d="M1.67801 8.34331C1.66171 8.33036 1.67801 8.27854 1.6943 8.25262C1.71059 8.22671 1.75947 8.2008 1.77577 8.22671C1.79206 8.23967 1.77577 8.29149 1.75947 8.3174C1.74318 8.35627 1.6943 8.36923 1.67801 8.34331Z" fill="#F1E6DD"/>
<path d="M1.31957 8.83563C1.30328 8.80972 1.31957 8.73199 1.36845 8.68016C1.41733 8.62834 1.4825 8.60243 1.49879 8.62834C1.53138 8.65425 1.51509 8.73199 1.44991 8.78381C1.41733 8.84859 1.35216 8.8745 1.31957 8.83563Z" fill="#F1E6DD"/>
<path d="M13.9795 8.35631V8.49882C13.9795 8.92635 14.175 9.34093 14.3542 9.71663C14.5009 10.0276 14.6475 10.3126 14.6475 10.5587C14.6475 11.1676 14.0284 11.647 13.2789 11.647C12.5131 11.647 11.9103 11.1547 11.9103 10.5587C11.9103 10.0146 12.7249 8.73202 13.5885 8.31744L13.9958 8.12311V8.35631H13.9795Z" fill="url(#paint10_radial_24_3)"/>
<path d="M13.8165 8.49884C13.8165 8.95228 14.0283 9.37981 14.2075 9.75552C14.3542 10.0665 14.4845 10.3256 14.4845 10.5458C14.4845 11.077 13.9468 11.5175 13.2625 11.5175C12.5945 11.5175 12.0568 11.0899 12.0568 10.5458C12.0568 10.0405 12.8552 8.79681 13.6536 8.4211L13.8165 8.34337V8.49884Z" fill="url(#paint11_radial_24_3)"/>
<path d="M14.1588 10.2996C14.1588 10.1183 14.0936 9.91097 14.0121 9.67777C14.1588 9.9887 14.3054 10.2737 14.3054 10.494C14.3054 10.9863 13.8166 11.3749 13.1975 11.3749C13.1649 11.3749 13.1486 11.3749 13.116 11.3749C13.7026 11.3361 14.1588 10.8697 14.1588 10.2996Z" fill="#D1DCEE"/>
<path d="M13.0834 9.30207C13.0671 9.28911 13.0834 9.23729 13.0997 9.21138C13.1323 9.17251 13.1649 9.15956 13.1811 9.18547C13.1974 9.19843 13.1811 9.25025 13.1649 9.27616C13.1486 9.31503 13.0997 9.32798 13.0834 9.30207Z" fill="#F1E6DD"/>
<path d="M12.725 9.79437C12.6924 9.76846 12.725 9.69073 12.7738 9.63891C12.8227 9.58708 12.8879 9.56117 12.9042 9.58708C12.9368 9.61299 12.9205 9.69073 12.8553 9.74255C12.8227 9.80733 12.7575 9.82028 12.725 9.79437Z" fill="#F1E6DD"/>
<path d="M13.0346 2.53927C13.0346 2.4745 13.0509 2.42268 13.0509 2.3579C13.0509 1.04939 11.6823 0 9.98778 0C8.60285 0 7.44603 0.699596 7.05499 1.6583C6.61507 1.39919 6.04481 1.24373 5.42566 1.24373C4.02444 1.24373 2.88391 2.04697 2.88391 3.03158C2.88391 3.12227 2.9002 3.2 2.9165 3.29069C1.23829 3.51094 0 4.23644 0 5.11742C0 6.15385 1.74338 6.99596 3.91039 6.99596C4.67617 6.99596 5.37678 6.89232 5.97963 6.71094C6.63136 6.94414 7.41344 7.08665 8.27699 7.08665C9.10794 7.08665 9.85743 6.95709 10.4929 6.74981C11.0631 6.99596 11.7312 7.13847 12.4481 7.13847C14.4033 7.13847 16 6.10203 16 4.8324C16 3.6664 14.7291 2.72065 13.0346 2.53927Z" fill="url(#paint12_radial_24_3)"/>
<path d="M7.31565 1.82671L7.21789 2.05991L6.97349 1.9174C6.58245 1.6842 6.07736 1.55465 5.57227 1.55465C4.36656 1.55465 3.38897 2.24129 3.38897 3.07044C3.38897 3.13521 3.38897 3.21295 3.40526 3.29068L3.43785 3.4591L3.22603 3.48501C1.72705 3.67934 0.667989 4.31416 0.667989 5.02671C0.667989 5.90769 2.23214 6.62024 4.13846 6.62024C4.80648 6.62024 5.45821 6.52955 6.01218 6.36113L6.09365 6.33522L6.17512 6.36113C6.77797 6.58137 7.49487 6.69797 8.26066 6.69797C8.97756 6.69797 9.67817 6.59433 10.2647 6.38704L10.3625 6.34817L10.4602 6.38704C10.9816 6.60728 11.5845 6.72388 12.2036 6.72388C13.9307 6.72388 15.3482 5.82995 15.3482 4.71578C15.3482 3.73117 14.2566 2.90202 12.7413 2.73359L12.5458 2.70768L12.5621 2.3838C12.5458 1.29554 11.3401 0.375696 9.87369 0.375696C8.68428 0.375696 7.65781 0.958693 7.31565 1.82671Z" fill="url(#paint13_radial_24_3)"/>
<path d="M14.9247 4.664C14.9247 3.87371 13.996 3.18707 12.7088 3.04456L12.0897 2.97978C12.0897 2.97978 12.1223 2.35792 12.1223 2.33201C12.1223 1.41217 11.1284 0.660752 9.9064 0.660752C9.27096 0.660752 8.7007 0.855084 8.29337 1.19193C8.63553 1.02351 9.05915 0.919862 9.49907 0.919862C10.7374 0.932817 11.7312 1.68424 11.7312 2.60407C11.7312 2.62999 11.6987 3.25185 11.6987 3.25185L12.3178 3.31663C13.605 3.45914 14.5337 4.13282 14.5337 4.93606C14.5337 5.31177 14.3219 5.66157 13.9797 5.93363C14.55 5.6227 14.9247 5.16926 14.9247 4.664Z" fill="url(#paint14_radial_24_3)"/>
<path d="M4.74139 4.93605C4.33406 4.96196 3.95931 5.23403 3.89414 5.55791L3.30758 8.80974C3.24241 9.13363 3.53569 9.35387 3.92673 9.315L5.18131 9.18545C5.58864 9.14658 5.76787 9.34091 5.57235 9.62593L3.53569 12.7353C3.34017 13.0203 3.40534 13.0591 3.66603 12.8L8.40738 8.27856C8.66807 8.03241 8.55402 7.83808 8.14669 7.85103L6.664 7.91581C6.25667 7.92877 6.06115 7.70852 6.22408 7.41055L7.34832 5.32471C7.51125 5.02674 7.31573 4.80649 6.9084 4.81945L4.74139 4.93605Z" fill="url(#paint15_radial_24_3)"/>
<path d="M6.92473 5.11741L4.75772 5.23401C4.52961 5.24697 4.28522 5.41539 4.25263 5.59677L3.64978 8.86155C3.63348 8.92633 3.64978 8.97815 3.68236 9.00406C3.71495 9.02997 3.78012 9.04293 3.86159 9.02997L5.11617 8.90041C5.44204 8.86155 5.73532 8.95224 5.88196 9.12066C5.96342 9.21135 5.99601 9.31499 5.99601 9.41863C5.99601 9.53523 5.96342 9.65183 5.88196 9.76843C5.88196 9.76843 5.47462 10.4033 5.09988 10.9733C6.46851 9.66479 7.98379 8.23969 8.06526 8.16195C7.88603 8.16195 6.68033 8.21377 6.68033 8.21377C6.35446 8.22673 6.07748 8.13604 5.91454 7.95467C5.83308 7.85102 5.7842 7.73442 5.7842 7.60487C5.7842 7.50122 5.81678 7.39758 5.86566 7.29394L7.00619 5.2081C7.02249 5.16924 7.03878 5.14332 7.03878 5.13037C7.02249 5.11741 6.9899 5.11741 6.92473 5.11741Z" fill="url(#paint16_radial_24_3)"/>
<path d="M8.45621 2.25426C8.45621 2.2154 8.45621 2.17653 8.45621 2.13767C8.45621 1.29556 7.56008 0.608918 6.46843 0.608918C5.5723 0.608918 4.82281 1.06236 4.56212 1.68422C4.26884 1.5158 3.91039 1.41216 3.50305 1.41216C2.59063 1.41216 1.85743 1.93038 1.85743 2.57815C1.85743 2.62997 1.85743 2.69475 1.87373 2.74657C0.798371 2.88908 0 3.36844 0 3.92552C0 4.59921 1.14053 5.14334 2.52546 5.14334C3.01426 5.14334 3.47047 5.07856 3.86151 4.96196C4.28513 5.11743 4.79022 5.20812 5.36049 5.20812C5.89817 5.20812 6.38697 5.13038 6.7943 4.98787C7.15275 5.14334 7.59267 5.23403 8.06517 5.23403C9.33605 5.23403 10.3625 4.56034 10.3625 3.74415C10.3788 2.99273 9.54786 2.37086 8.45621 2.25426Z" fill="url(#paint17_radial_24_3)"/>
<path d="M4.74142 1.80081L4.67625 1.94332L4.51331 1.85263C4.25262 1.71012 3.92675 1.61943 3.60089 1.61943C2.81881 1.61943 2.18337 2.05992 2.18337 2.60405C2.18337 2.65587 2.18337 2.69474 2.19967 2.74656L2.21596 2.86316L2.06932 2.87612C1.09172 3.00567 0.407407 3.40729 0.407407 3.87369C0.407407 4.44373 1.41759 4.91013 2.65588 4.91013C3.0795 4.91013 3.50313 4.8583 3.87788 4.7417L3.92675 4.72875L3.97563 4.7417C4.36667 4.88421 4.83918 4.96195 5.32798 4.96195C5.80048 4.96195 6.2404 4.89717 6.63144 4.76762L6.69661 4.7417L6.76178 4.76762C7.10394 4.91013 7.49498 4.98786 7.90231 4.98786C9.02655 4.98786 9.93897 4.40486 9.93897 3.69231C9.93897 3.05749 9.22207 2.51336 8.24447 2.40972L8.11413 2.39676L8.13042 2.18948C8.13042 1.46397 7.34834 0.868016 6.40333 0.868016C5.63755 0.855061 4.96952 1.23077 4.74142 1.80081Z" fill="url(#paint18_radial_24_3)"/>
<path d="M9.67813 3.64051C9.67813 3.12229 9.07528 2.6818 8.24433 2.59111L7.85329 2.55225C7.85329 2.55225 7.86958 2.15063 7.86958 2.13767C7.86958 1.54172 7.21785 1.04941 6.43577 1.04941C6.02844 1.04941 5.65369 1.17897 5.393 1.38625C5.62111 1.26965 5.8818 1.20488 6.17508 1.20488C6.97345 1.20488 7.60889 1.69718 7.60889 2.29314C7.60889 2.30609 7.59259 2.70771 7.59259 2.70771L7.98363 2.74658C8.81459 2.83727 9.41744 3.27775 9.41744 3.79597C9.41744 4.04213 9.28709 4.26237 9.05899 4.44375C9.43373 4.26237 9.67813 3.97735 9.67813 3.64051Z" fill="url(#paint19_radial_24_3)"/>
<defs>
<radialGradient id="paint0_radial_24_3" cx="0" cy="0" r="1" gradientUnits="userSpaceOnUse" gradientTransform="translate(0.746123 4.80666) scale(25.9584 16.1891)">
<stop offset="0.005618" stop-color="#D3DFF2"/>
<stop offset="0.5393" stop-color="#1998D5"/>
<stop offset="1" stop-color="#0073BB"/>
</radialGradient>
<radialGradient id="paint1_radial_24_3" cx="0" cy="0" r="1" gradientUnits="userSpaceOnUse" gradientTransform="translate(7.60291 8.31047) rotate(180) scale(10.8626 6.61482)">
<stop offset="0.005618" stop-color="#A9D1EF"/>
<stop offset="0.5393" stop-color="#1998D5"/>
<stop offset="1" stop-color="#0073BB"/>
</radialGradient>
<radialGradient id="paint2_radial_24_3" cx="0" cy="0" r="1" gradientUnits="userSpaceOnUse" gradientTransform="translate(0.142344 4.43935) scale(25.8883 16.1802)">
<stop offset="0.005618" stop-color="#D3DFF2"/>
<stop offset="0.5393" stop-color="#1998D5"/>
<stop offset="1" stop-color="#0073BB"/>
</radialGradient>
<radialGradient id="paint3_radial_24_3" cx="0" cy="0" r="1" gradientUnits="userSpaceOnUse" gradientTransform="translate(8.73483 7.47765) rotate(180) scale(10.9236 6.63024)">
<stop offset="0.005618" stop-color="#A9D1EF"/>
<stop offset="0.5393" stop-color="#1998D5"/>
<stop offset="1" stop-color="#0073BB"/>
</radialGradient>
<radialGradient id="paint4_radial_24_3" cx="0" cy="0" r="1" gradientUnits="userSpaceOnUse" gradientTransform="translate(0.830909 4.73685) scale(26.0293 16.2099)">
<stop offset="0.005618" stop-color="#D3DFF2"/>
<stop offset="0.5393" stop-color="#1998D5"/>
<stop offset="1" stop-color="#0073BB"/>
</radialGradient>
<radialGradient id="paint5_radial_24_3" cx="0" cy="0" r="1" gradientUnits="userSpaceOnUse" gradientTransform="translate(8.36508 7.80776) rotate(180) scale(10.8223 6.6377)">
<stop offset="0.005618" stop-color="#A9D1EF"/>
<stop offset="0.5393" stop-color="#1998D5"/>
<stop offset="1" stop-color="#0073BB"/>
</radialGradient>
<radialGradient id="paint6_radial_24_3" cx="0" cy="0" r="1" gradientUnits="userSpaceOnUse" gradientTransform="translate(0.830842 4.82244) scale(26.0299 16.2103)">
<stop offset="0.005618" stop-color="#D3DFF2"/>
<stop offset="0.5393" stop-color="#1998D5"/>
<stop offset="1" stop-color="#0073BB"/>
</radialGradient>
<radialGradient id="paint7_radial_24_3" cx="0" cy="0" r="1" gradientUnits="userSpaceOnUse" gradientTransform="translate(8.36368 7.7965) rotate(180) scale(10.8221 6.63756)">
<stop offset="0.005618" stop-color="#A9D1EF"/>
<stop offset="0.5393" stop-color="#1998D5"/>
<stop offset="1" stop-color="#0073BB"/>
</radialGradient>
<radialGradient id="paint8_radial_24_3" cx="0" cy="0" r="1" gradientUnits="userSpaceOnUse" gradientTransform="translate(0.33108 4.67146) scale(26.0281 16.1126)">
<stop offset="0.005618" stop-color="#D3DFF2"/>
<stop offset="0.5393" stop-color="#1998D5"/>
<stop offset="1" stop-color="#0073BB"/>
</radialGradient>
<radialGradient id="paint9_radial_24_3" cx="0" cy="0" r="1" gradientUnits="userSpaceOnUse" gradientTransform="translate(8.07685 7.99217) rotate(180) scale(10.8601 6.63118)">
<stop offset="0.005618" stop-color="#A9D1EF"/>
<stop offset="0.5393" stop-color="#1998D5"/>
<stop offset="1" stop-color="#0073BB"/>
</radialGradient>
<radialGradient id="paint10_radial_24_3" cx="0" cy="0" r="1" gradientUnits="userSpaceOnUse" gradientTransform="translate(0.250756 4.62171) scale(26.1824 16.1715)">
<stop offset="0.005618" stop-color="#D3DFF2"/>
<stop offset="0.5393" stop-color="#1998D5"/>
<stop offset="1" stop-color="#0073BB"/>
</radialGradient>
<radialGradient id="paint11_radial_24_3" cx="0" cy="0" r="1" gradientUnits="userSpaceOnUse" gradientTransform="translate(8.08875 7.95105) rotate(180) scale(10.8597 6.60448)">
<stop offset="0.005618" stop-color="#A9D1EF"/>
<stop offset="0.5393" stop-color="#1998D5"/>
<stop offset="1" stop-color="#0073BB"/>
</radialGradient>
<radialGradient id="paint12_radial_24_3" cx="0" cy="0" r="1" gradientUnits="userSpaceOnUse" gradientTransform="translate(11.0062 19.601) scale(12.5781 22.4168)">
<stop offset="0.005618" stop-color="#A9D1EF"/>
<stop offset="0.5393" stop-color="#1998D5"/>
<stop offset="1" stop-color="#0073BB"/>
</radialGradient>
<radialGradient id="paint13_radial_24_3" cx="0" cy="0" r="1" gradientUnits="userSpaceOnUse" gradientTransform="translate(13.6861 5.35674) scale(8.68321 15.9665)">
<stop offset="0.005618" stop-color="#A9D1EF"/>
<stop offset="0.5393" stop-color="#1998D5"/>
<stop offset="1" stop-color="#0073BB"/>
</radialGradient>
<radialGradient id="paint14_radial_24_3" cx="0" cy="0" r="1" gradientUnits="userSpaceOnUse" gradientTransform="translate(11.7894 6.83121) scale(23.0532 23.0486)">
<stop stop-color="#CBEBFB"/>
<stop offset="0.7767" stop-color="#BDCDDA"/>
<stop offset="1" stop-color="#B9C4D0"/>
</radialGradient>
<radialGradient id="paint15_radial_24_3" cx="0" cy="0" r="1" gradientUnits="userSpaceOnUse" gradientTransform="translate(8.54136 8.16628) scale(20.5441 6.15843)">
<stop stop-color="#FBB01C"/>
<stop offset="0.7007" stop-color="#FBAE1C"/>
<stop offset="0.9529" stop-color="#F9A71A"/>
<stop offset="1" stop-color="#F9A51A"/>
</radialGradient>
<radialGradient id="paint16_radial_24_3" cx="0" cy="0" r="1" gradientUnits="userSpaceOnUse" gradientTransform="translate(12.1932 13.0755) scale(31.9791 19.2011)">
<stop offset="0.19" stop-color="#FFF100"/>
<stop offset="0.5752" stop-color="#FAC217"/>
<stop offset="1" stop-color="#F58A33"/>
</radialGradient>
<radialGradient id="paint17_radial_24_3" cx="0" cy="0" r="1" gradientUnits="userSpaceOnUse" gradientTransform="translate(10.8263 19.2927) scale(12.5836 22.4184)">
<stop offset="0.005618" stop-color="#A9D1EF"/>
<stop offset="0.5393" stop-color="#1998D5"/>
<stop offset="1" stop-color="#0073BB"/>
</radialGradient>
<radialGradient id="paint18_radial_24_3" cx="0" cy="0" r="1" gradientUnits="userSpaceOnUse" gradientTransform="translate(13.5004 4.94197) scale(8.66554 15.9401)">
<stop offset="0.005618" stop-color="#A9D1EF"/>
<stop offset="0.5393" stop-color="#1998D5"/>
<stop offset="1" stop-color="#005588"/>
</radialGradient>
<radialGradient id="paint19_radial_24_3" cx="0" cy="0" r="1" gradientUnits="userSpaceOnUse" gradientTransform="translate(8.43373 2.44444) scale(6.18946 4.9215)">
<stop stop-color="#CBEBFB"/>
<stop offset="0.7767" stop-color="#BDCDDA"/>
<stop offset="1" stop-color="#B9C4D0"/>
</radialGradient>
</defs>
</svg>
