<svg width="16" height="16" viewBox="0 0 16 16" fill="none" xmlns="http://www.w3.org/2000/svg">
<path d="M13.0346 2.84832C13.0346 2.77566 13.0509 2.71753 13.0509 2.64487C13.0509 1.17711 11.6823 0 9.98778 0C8.60285 0 7.44603 0.784742 7.05499 1.86013C6.61507 1.56948 6.04481 1.3951 5.42566 1.3951C4.02444 1.3951 2.86762 2.2961 2.86762 3.40055C2.86762 3.50227 2.88391 3.58947 2.9002 3.69119C1.23829 3.93824 0 4.75205 0 5.74024C0 6.90282 1.74338 7.84742 3.91039 7.84742C4.67617 7.84742 5.37678 7.73116 5.97963 7.52771C6.63137 7.78929 7.41344 7.94914 8.27699 7.94914C9.10794 7.94914 9.85743 7.80382 10.4929 7.5713C11.0631 7.84742 11.7312 8.00727 12.4481 8.00727C14.4033 8.00727 16 6.84469 16 5.42053C16 4.11263 14.7291 3.05177 13.0346 2.84832Z" fill="url(#paint0_radial_24_4)"/>
<path d="M7.31562 2.04904L7.21786 2.31062L6.97346 2.15077C6.58242 1.88919 6.07733 1.74386 5.57224 1.74386C4.36653 1.74386 3.38894 2.51407 3.38894 3.44414C3.38894 3.5168 3.38894 3.60399 3.40523 3.69119L3.43782 3.8801L3.226 3.90917C1.72702 4.12715 0.667959 4.83923 0.667959 5.63851C0.667959 6.6267 2.23211 7.42597 4.13843 7.42597C4.80645 7.42597 5.45818 7.32425 6.01216 7.13533L6.09362 7.10626L6.17509 7.13533C6.77794 7.38238 7.49484 7.51317 8.26063 7.51317C8.97753 7.51317 9.67814 7.39691 10.2647 7.16439L10.3625 7.1208L10.4602 7.16439C10.9816 7.41144 11.5845 7.54223 12.2036 7.54223C13.9307 7.54223 15.3482 6.53951 15.3482 5.28973C15.3482 4.18528 14.2566 3.25522 12.7413 3.0663L12.5458 3.03723L12.5621 2.67393C12.5458 1.45322 11.3401 0.421429 9.87366 0.421429C8.68425 0.421429 7.65778 1.07538 7.31562 2.04904Z" fill="url(#paint1_radial_24_4)"/>
<path d="M14.9247 5.23162C14.9247 4.34515 13.996 3.57494 12.7088 3.41509L12.0896 3.34243C12.0896 3.34243 12.1222 2.64488 12.1222 2.61581C12.1222 1.58403 11.1283 0.741155 9.90634 0.741155C9.2709 0.741155 8.70064 0.959138 8.2933 1.33698C8.63546 1.14806 9.05909 1.0318 9.49901 1.0318C10.7373 1.04633 11.7312 1.8892 11.7312 2.92099C11.7312 2.95006 11.6986 3.64761 11.6986 3.64761L12.3177 3.72027C13.6049 3.88012 14.5336 4.6358 14.5336 5.5368C14.5336 5.95823 14.3218 6.3506 13.9797 6.65578C14.5499 6.30701 14.9247 5.81291 14.9247 5.23162Z" fill="url(#paint2_radial_24_4)"/>
<path d="M8.45621 2.52863C8.45621 2.48503 8.45621 2.44144 8.45621 2.39784C8.45621 1.45324 7.56008 0.683033 6.46843 0.683033C5.5723 0.683033 4.82281 1.19166 4.56212 1.88921C4.26884 1.70029 3.91039 1.58403 3.50305 1.58403C2.59063 1.58403 1.85743 2.16532 1.85743 2.89194C1.85743 2.95006 1.85743 3.02273 1.87373 3.08085C0.798371 3.24071 0 3.7784 0 4.40329C0 5.15897 1.14053 5.76932 2.52546 5.76932C3.01426 5.76932 3.47047 5.69666 3.86151 5.56587C4.28513 5.74026 4.79022 5.84198 5.36049 5.84198C5.89817 5.84198 6.38696 5.75479 6.7943 5.59493C7.15275 5.76932 7.59267 5.87105 8.06517 5.87105C9.33605 5.87105 10.3625 5.11537 10.3625 4.19984C10.3788 3.35697 9.54786 2.65942 8.45621 2.52863Z" fill="url(#paint3_radial_24_4)"/>
<path d="M4.74137 2.02002L4.67619 2.17987L4.51326 2.07814C4.25257 1.91829 3.9267 1.81656 3.60084 1.81656C2.81876 1.81656 2.18332 2.31066 2.18332 2.92101C2.18332 2.97914 2.18332 3.02274 2.19961 3.08087L2.21591 3.21166L2.06927 3.22619C1.09167 3.37151 0.407354 3.82201 0.407354 4.34518C0.407354 4.98459 1.41754 5.50776 2.65583 5.50776C3.07945 5.50776 3.50308 5.44963 3.87782 5.31884L3.9267 5.3043L3.97558 5.31884C4.36662 5.47869 4.83913 5.56589 5.32792 5.56589C5.80043 5.56589 6.24035 5.49322 6.63139 5.3479L6.69656 5.31884L6.76173 5.3479C7.10389 5.50776 7.49493 5.59495 7.90226 5.59495C9.0265 5.59495 9.93892 4.941 9.93892 4.14172C9.93892 3.42964 9.22202 2.81929 8.24442 2.70303L8.11407 2.6885L8.13037 2.45598C8.13037 1.64218 7.34829 0.973693 6.40328 0.973693C5.6375 0.959161 4.96947 1.3806 4.74137 2.02002Z" fill="url(#paint4_radial_24_4)"/>
<path d="M9.67814 4.08357C9.67814 3.50228 9.07529 3.00819 8.24433 2.90646L7.8533 2.86287C7.8533 2.86287 7.86959 2.41237 7.86959 2.39783C7.86959 1.72935 7.21786 1.17712 6.43578 1.17712C6.02845 1.17712 5.6537 1.32245 5.39301 1.55496C5.62112 1.42417 5.88181 1.35151 6.17509 1.35151C6.97346 1.35151 7.6089 1.90374 7.6089 2.57222C7.6089 2.58675 7.5926 3.03725 7.5926 3.03725L7.98364 3.08085C8.8146 3.18257 9.41745 3.67667 9.41745 4.25796C9.41745 4.53407 9.2871 4.78112 9.059 4.98457C9.43374 4.78112 9.67814 4.44688 9.67814 4.08357Z" fill="url(#paint5_radial_24_4)"/>
<path d="M4.96943 7.51317C4.96943 8.16712 5.24642 8.80654 5.49082 9.37329C5.70263 9.86739 5.88185 10.2743 5.88185 10.6667C5.88185 11.5967 5.0346 12.3524 3.99183 12.3524C2.94906 12.3524 2.11811 11.5967 2.11811 10.6812C2.11811 9.85286 3.22605 7.87647 4.41546 7.25158L4.96943 6.96094V7.51317Z" fill="url(#paint6_radial_24_4)"/>
<path d="M4.74138 7.52768C4.74138 8.22523 5.03465 8.87918 5.27905 9.46047C5.47457 9.9255 5.6538 10.3324 5.6538 10.6812C5.6538 11.495 4.90431 12.1635 3.99188 12.1635C3.07946 12.1635 2.32997 11.495 2.32997 10.6812C2.32997 9.89644 3.42162 7.99271 4.52956 7.41142L4.74138 7.29516V7.52768Z" fill="url(#paint7_radial_24_4)"/>
<path d="M5.21393 10.2888C5.21393 10.0127 5.13246 9.69298 5.01841 9.32968C5.23022 9.80924 5.42574 10.2452 5.42574 10.594C5.42574 11.3351 4.74142 11.9455 3.91047 11.9455C3.87788 11.9455 3.829 11.9455 3.79641 11.9455C4.57849 11.8874 5.21393 11.1607 5.21393 10.2888Z" fill="#D1DCEE"/>
<path d="M3.74751 8.76294C3.73122 8.73387 3.73122 8.66121 3.7801 8.61761C3.81269 8.55949 3.86157 8.54495 3.89415 8.57402C3.91045 8.60308 3.91045 8.67574 3.86157 8.71934C3.82898 8.77747 3.7801 8.792 3.74751 8.76294Z" fill="#F1E6DD"/>
<path d="M3.2587 9.5186C3.22611 9.475 3.2587 9.35874 3.32387 9.27155C3.38904 9.18436 3.47051 9.15529 3.51939 9.19889C3.55198 9.24249 3.53568 9.35875 3.45422 9.44594C3.38904 9.53313 3.29128 9.5622 3.2587 9.5186Z" fill="#F1E6DD"/>
<path d="M7.52745 5.88557V6.01636C7.52745 6.40873 7.69038 6.8011 7.83702 7.13534C7.96737 7.42599 8.08142 7.68757 8.08142 7.92008C8.08142 8.47231 7.57633 8.93734 6.94089 8.93734C6.32175 8.93734 5.80036 8.48684 5.80036 7.92008C5.80036 7.41146 6.46839 6.23434 7.18529 5.8565L7.51116 5.68212V5.88557H7.52745Z" fill="url(#paint8_radial_24_4)"/>
<path d="M7.39707 6.01635C7.39707 6.43778 7.5763 6.83016 7.72294 7.17893C7.83699 7.45504 7.95104 7.70209 7.95104 7.92007C7.95104 8.41417 7.49483 8.80654 6.95715 8.80654C6.41947 8.80654 5.96326 8.39964 5.96326 7.92007C5.96326 7.45504 6.61499 6.30699 7.28302 5.95822L7.41336 5.88556V6.01635H7.39707Z" fill="url(#paint9_radial_24_4)"/>
<path d="M7.67419 7.67305C7.67419 7.49867 7.62531 7.30975 7.56013 7.09176C7.69048 7.38241 7.80453 7.64399 7.80453 7.84744C7.80453 8.29794 7.3972 8.66125 6.89211 8.66125C6.87581 8.66125 6.84323 8.66125 6.82694 8.66125C7.29944 8.64672 7.67419 8.21075 7.67419 7.67305Z" fill="#D1DCEE"/>
<path d="M6.79425 6.7575C6.77795 6.74297 6.79425 6.69937 6.81054 6.67031C6.82683 6.64124 6.85942 6.62671 6.87571 6.64124C6.89201 6.65577 6.87571 6.69937 6.85942 6.72844C6.84313 6.77203 6.81054 6.78656 6.79425 6.7575Z" fill="#F1E6DD"/>
<path d="M6.50096 7.22251C6.48467 7.19345 6.50096 7.13532 6.53355 7.07719C6.58243 7.01906 6.63131 7.00453 6.6476 7.03359C6.6639 7.06266 6.6476 7.12079 6.61502 7.17892C6.56614 7.22251 6.51726 7.23705 6.50096 7.22251Z" fill="#F1E6DD"/>
<path d="M7.82075 9.4169C7.82075 9.70755 7.9511 9.99819 8.04886 10.2598C8.14662 10.4778 8.22808 10.6667 8.22808 10.8411C8.22808 11.2625 7.85334 11.5967 7.38084 11.5967C6.90833 11.5967 6.53359 11.2625 6.53359 10.8411C6.53359 10.4632 7.03868 9.57676 7.57635 9.30064L7.82075 9.15532V9.4169Z" fill="url(#paint10_radial_24_4)"/>
<path d="M7.72295 9.41691C7.72295 9.72209 7.85329 10.0273 7.96734 10.2888C8.0651 10.4923 8.13028 10.6812 8.13028 10.8411C8.13028 11.2044 7.78812 11.5096 7.38079 11.5096C6.97345 11.5096 6.6313 11.2044 6.6313 10.8411C6.6313 10.4923 7.12009 9.6349 7.62519 9.37332L7.72295 9.32972V9.41691Z" fill="url(#paint11_radial_24_4)"/>
<path d="M7.93476 10.6521C7.93476 10.5213 7.90218 10.376 7.837 10.2162C7.93476 10.4341 8.01623 10.6231 8.01623 10.7829C8.01623 11.1172 7.70666 11.3933 7.33191 11.3933C7.31562 11.3933 7.29933 11.3933 7.28303 11.3933C7.64148 11.3642 7.93476 11.0445 7.93476 10.6521Z" fill="#D1DCEE"/>
<path d="M7.26679 9.96912C7.25049 9.95459 7.26679 9.92552 7.28308 9.89646C7.29937 9.8674 7.31567 9.8674 7.33196 9.88193C7.34825 9.89646 7.33196 9.92553 7.31567 9.95459C7.29937 9.96912 7.28308 9.98365 7.26679 9.96912Z" fill="#F1E6DD"/>
<path d="M7.05499 10.3033C7.0387 10.2743 7.05499 10.2307 7.08758 10.1871C7.12016 10.1435 7.15275 10.129 7.16904 10.158C7.18534 10.1726 7.16904 10.2307 7.13646 10.2743C7.10387 10.3179 7.07128 10.3324 7.05499 10.3033Z" fill="#F1E6DD"/>
<path d="M9.97153 11.7275C9.97153 12.0182 10.1019 12.3088 10.1996 12.5704C10.2974 12.7884 10.3789 12.9773 10.3789 13.1517C10.3789 13.5731 10.0041 13.9074 9.53161 13.9074C9.05911 13.9074 8.68436 13.5731 8.68436 13.1517C8.68436 12.7739 9.18945 11.8874 9.72713 11.6113L9.97153 11.4805V11.7275Z" fill="url(#paint12_radial_24_4)"/>
<path d="M9.8575 11.7275C9.8575 12.0327 9.98784 12.3379 10.1019 12.5995C10.1997 12.8029 10.2648 12.9918 10.2648 13.1517C10.2648 13.515 9.92267 13.8202 9.51534 13.8202C9.10801 13.8202 8.76585 13.515 8.76585 13.1517C8.76585 12.8029 9.25465 11.9455 9.75974 11.6839L9.8575 11.6403V11.7275Z" fill="url(#paint13_radial_24_4)"/>
<path d="M10.0693 12.9628C10.0693 12.832 10.0367 12.6867 9.97155 12.5268C10.0693 12.7448 10.1508 12.9337 10.1508 13.0936C10.1508 13.4278 9.84121 13.7039 9.46646 13.7039C9.45017 13.7039 9.43388 13.7039 9.41759 13.7039C9.79233 13.6894 10.0693 13.3552 10.0693 12.9628Z" fill="#D1DCEE"/>
<path d="M9.41756 12.2797C9.40127 12.2652 9.41756 12.2361 9.43386 12.2071C9.45015 12.178 9.46644 12.178 9.48274 12.1925C9.49903 12.2071 9.48274 12.2361 9.46644 12.2652C9.45015 12.2943 9.43386 12.2943 9.41756 12.2797Z" fill="#F1E6DD"/>
<path d="M9.20577 12.614C9.18947 12.5994 9.20577 12.5413 9.23835 12.4977C9.27094 12.4541 9.30353 12.4396 9.31982 12.4686C9.33611 12.4832 9.31982 12.5413 9.28723 12.5849C9.25465 12.6285 9.22206 12.643 9.20577 12.614Z" fill="#F1E6DD"/>
<path d="M6.97349 12.3088V12.4687C6.97349 12.9482 7.16901 13.4133 7.34824 13.8347C7.49488 14.1835 7.64152 14.5032 7.64152 14.7793C7.64152 15.4623 7.02237 16 6.27288 16C5.5071 16 4.90425 15.4478 4.90425 14.7793C4.90425 14.1689 5.71891 12.7302 6.58245 12.2652L6.98979 12.0472V12.3088H6.97349Z" fill="url(#paint14_radial_24_4)"/>
<path d="M6.81059 12.4687C6.81059 12.9773 7.02241 13.4569 7.20163 13.8783C7.34827 14.2125 7.47862 14.5177 7.47862 14.7648C7.47862 15.3606 6.94094 15.8402 6.25662 15.8402C5.5886 15.8402 5.05092 15.3606 5.05092 14.7648C5.05092 14.198 5.84929 12.8029 6.64766 12.3815L6.81059 12.2943V12.4687Z" fill="url(#paint15_radial_24_4)"/>
<path d="M7.15278 14.4886C7.15278 14.2852 7.08761 14.0527 7.00614 13.7911C7.15278 14.1399 7.29942 14.4596 7.29942 14.7066C7.29942 15.2589 6.81062 15.6948 6.19148 15.6948C6.15889 15.6948 6.1426 15.6948 6.11001 15.6948C6.69657 15.6658 7.15278 15.1281 7.15278 14.4886Z" fill="#D1DCEE"/>
<path d="M6.09362 13.3842C6.07733 13.3697 6.09362 13.3115 6.10991 13.2825C6.1425 13.2389 6.17509 13.2243 6.19138 13.2534C6.20767 13.2679 6.19138 13.3261 6.17509 13.3551C6.1425 13.3842 6.10991 13.3987 6.09362 13.3842Z" fill="#F1E6DD"/>
<path d="M5.7352 13.9364C5.70261 13.9074 5.7352 13.8202 5.78408 13.762C5.83296 13.7039 5.89813 13.6748 5.91443 13.7039C5.94701 13.733 5.93072 13.8202 5.86555 13.8783C5.83296 13.9364 5.76779 13.9655 5.7352 13.9364Z" fill="#F1E6DD"/>
<path d="M11.0143 6.81563V6.97548C11.0143 7.45505 11.2098 7.92008 11.389 8.34152C11.5357 8.69029 11.6823 9.01 11.6823 9.28611C11.6823 9.96913 11.0632 10.5068 10.3137 10.5068C9.54789 10.5068 8.94504 9.9546 8.94504 9.28611C8.94504 8.67576 9.7597 7.23707 10.6232 6.77203L11.0306 6.55405V6.81563H11.0143Z" fill="url(#paint16_radial_24_4)"/>
<path d="M10.8514 6.9755C10.8514 7.48413 11.0632 7.96369 11.2424 8.38513C11.3891 8.71937 11.5194 9.02455 11.5194 9.27159C11.5194 9.86742 10.9817 10.347 10.2974 10.347C9.62939 10.347 9.09171 9.86742 9.09171 9.27159C9.09171 8.70484 9.89008 7.30974 10.6885 6.88831L10.8514 6.80111V6.9755Z" fill="url(#paint17_radial_24_4)"/>
<path d="M11.1936 8.99547C11.1936 8.79202 11.1284 8.5595 11.0469 8.29792C11.1936 8.6467 11.3402 8.9664 11.3402 9.21345C11.3402 9.76568 10.8514 10.2016 10.2323 10.2016C10.1997 10.2016 10.1834 10.2016 10.1508 10.2016C10.7374 10.158 11.1936 9.63489 11.1936 8.99547Z" fill="#D1DCEE"/>
<path d="M10.1344 7.87648C10.1181 7.86195 10.1344 7.80382 10.1507 7.77476C10.1833 7.73116 10.2159 7.71663 10.2322 7.74569C10.2485 7.76022 10.2322 7.81835 10.2159 7.84742C10.1833 7.89101 10.1507 7.90555 10.1344 7.87648Z" fill="#F1E6DD"/>
<path d="M9.77599 8.4287C9.74341 8.39964 9.77599 8.31245 9.82487 8.25432C9.87375 8.19619 9.93893 8.16712 9.95522 8.19619C9.98781 8.22525 9.97151 8.31245 9.90634 8.37057C9.85746 8.44324 9.79229 8.45777 9.77599 8.4287Z" fill="#F1E6DD"/>
<defs>
<radialGradient id="paint0_radial_24_4" cx="0" cy="0" r="1" gradientUnits="userSpaceOnUse" gradientTransform="translate(11.0059 19.6016) scale(12.5785 22.4176)">
<stop offset="0.005618" stop-color="#A9D1EF"/>
<stop offset="0.5393" stop-color="#1998D5"/>
<stop offset="1" stop-color="#0073BB"/>
</radialGradient>
<radialGradient id="paint1_radial_24_4" cx="0" cy="0" r="1" gradientUnits="userSpaceOnUse" gradientTransform="translate(13.6861 5.35671) scale(8.68336 15.9667)">
<stop offset="0.005618" stop-color="#A9D1EF"/>
<stop offset="0.5393" stop-color="#1998D5"/>
<stop offset="1" stop-color="#0073BB"/>
</radialGradient>
<radialGradient id="paint2_radial_24_4" cx="0" cy="0" r="1" gradientUnits="userSpaceOnUse" gradientTransform="translate(11.7894 6.83119) scale(23.0536 23.049)">
<stop stop-color="#CBEBFB"/>
<stop offset="0.7767" stop-color="#BDCDDA"/>
<stop offset="1" stop-color="#B9C4D0"/>
</radialGradient>
<radialGradient id="paint3_radial_24_4" cx="0" cy="0" r="1" gradientUnits="userSpaceOnUse" gradientTransform="translate(10.8261 19.2933) scale(12.5837 22.4185)">
<stop offset="0.005618" stop-color="#A9D1EF"/>
<stop offset="0.5393" stop-color="#1998D5"/>
<stop offset="1" stop-color="#0073BB"/>
</radialGradient>
<radialGradient id="paint4_radial_24_4" cx="0" cy="0" r="1" gradientUnits="userSpaceOnUse" gradientTransform="translate(13.5001 4.94178) scale(8.66568 15.9403)">
<stop offset="0.005618" stop-color="#A9D1EF"/>
<stop offset="0.5393" stop-color="#1998D5"/>
<stop offset="1" stop-color="#0073BB"/>
</radialGradient>
<radialGradient id="paint5_radial_24_4" cx="0" cy="0" r="1" gradientUnits="userSpaceOnUse" gradientTransform="translate(11.3529 6.57626) scale(23.1119 23.2001)">
<stop stop-color="#CBEBFB"/>
<stop offset="0.7767" stop-color="#BDCDDA"/>
<stop offset="1" stop-color="#B9C4D0"/>
</radialGradient>
<radialGradient id="paint6_radial_24_4" cx="0" cy="0" r="1" gradientUnits="userSpaceOnUse" gradientTransform="translate(0.655454 4.80418) scale(26.0706 16.2326)">
<stop offset="0.005618" stop-color="#D3DFF2"/>
<stop offset="0.5393" stop-color="#1998D5"/>
<stop offset="1" stop-color="#0073BB"/>
</radialGradient>
<radialGradient id="paint7_radial_24_4" cx="0" cy="0" r="1" gradientUnits="userSpaceOnUse" gradientTransform="translate(7.57591 8.29304) rotate(180) scale(10.8624 6.61474)">
<stop offset="0.005618" stop-color="#A9D1EF"/>
<stop offset="0.5393" stop-color="#1998D5"/>
<stop offset="1" stop-color="#0073BB"/>
</radialGradient>
<radialGradient id="paint8_radial_24_4" cx="0" cy="0" r="1" gradientUnits="userSpaceOnUse" gradientTransform="translate(0.173698 4.44324) scale(25.889 16.1806)">
<stop offset="0.005618" stop-color="#D3DFF2"/>
<stop offset="0.5393" stop-color="#1998D5"/>
<stop offset="1" stop-color="#0073BB"/>
</radialGradient>
<radialGradient id="paint9_radial_24_4" cx="0" cy="0" r="1" gradientUnits="userSpaceOnUse" gradientTransform="translate(8.64002 7.48188) rotate(180) scale(10.9239 6.63043)">
<stop offset="0.005618" stop-color="#A9D1EF"/>
<stop offset="0.5393" stop-color="#1998D5"/>
<stop offset="1" stop-color="#0073BB"/>
</radialGradient>
<radialGradient id="paint10_radial_24_4" cx="0" cy="0" r="1" gradientUnits="userSpaceOnUse" gradientTransform="translate(0.717514 4.80942) scale(26.0306 16.1142)">
<stop offset="0.005618" stop-color="#D3DFF2"/>
<stop offset="0.5393" stop-color="#1998D5"/>
<stop offset="1" stop-color="#0073BB"/>
</radialGradient>
<radialGradient id="paint11_radial_24_4" cx="0" cy="0" r="1" gradientUnits="userSpaceOnUse" gradientTransform="translate(8.23832 7.7067) rotate(180) scale(10.8221 6.63753)">
<stop offset="0.005618" stop-color="#A9D1EF"/>
<stop offset="0.5393" stop-color="#1998D5"/>
<stop offset="1" stop-color="#0073BB"/>
</radialGradient>
<radialGradient id="paint12_radial_24_4" cx="0" cy="0" r="1" gradientUnits="userSpaceOnUse" gradientTransform="translate(0.701361 4.76429) scale(26.0307 16.2108)">
<stop offset="0.005618" stop-color="#D3DFF2"/>
<stop offset="0.5393" stop-color="#1998D5"/>
<stop offset="1" stop-color="#0073BB"/>
</radialGradient>
<radialGradient id="paint13_radial_24_4" cx="0" cy="0" r="1" gradientUnits="userSpaceOnUse" gradientTransform="translate(8.39413 7.7325) rotate(180) scale(10.8228 6.63801)">
<stop offset="0.005618" stop-color="#A9D1EF"/>
<stop offset="0.5393" stop-color="#1998D5"/>
<stop offset="1" stop-color="#0073BB"/>
</radialGradient>
<radialGradient id="paint14_radial_24_4" cx="0" cy="0" r="1" gradientUnits="userSpaceOnUse" gradientTransform="translate(0.297719 4.65275) scale(26.1827 16.1717)">
<stop offset="0.005618" stop-color="#D3DFF2"/>
<stop offset="0.5393" stop-color="#1998D5"/>
<stop offset="1" stop-color="#0073BB"/>
</radialGradient>
<radialGradient id="paint15_radial_24_4" cx="0" cy="0" r="1" gradientUnits="userSpaceOnUse" gradientTransform="translate(8.14159 8.01844) rotate(180) scale(10.8597 6.63156)">
<stop offset="0.005618" stop-color="#A9D1EF"/>
<stop offset="0.5393" stop-color="#1998D5"/>
<stop offset="1" stop-color="#0073BB"/>
</radialGradient>
<radialGradient id="paint16_radial_24_4" cx="0" cy="0" r="1" gradientUnits="userSpaceOnUse" gradientTransform="translate(0.277628 4.62442) scale(26.1826 16.1716)">
<stop offset="0.005618" stop-color="#D3DFF2"/>
<stop offset="0.5393" stop-color="#1998D5"/>
<stop offset="1" stop-color="#0073BB"/>
</radialGradient>
<radialGradient id="paint17_radial_24_4" cx="0" cy="0" r="1" gradientUnits="userSpaceOnUse" gradientTransform="translate(8.11757 7.98761) rotate(180) scale(10.8597 6.63157)">
<stop offset="0.005618" stop-color="#A9D1EF"/>
<stop offset="0.5393" stop-color="#1998D5"/>
<stop offset="1" stop-color="#0073BB"/>
</radialGradient>
</defs>
</svg>
