<svg width="25" height="16" viewBox="0 0 25 16" fill="none" xmlns="http://www.w3.org/2000/svg">
<path d="M2.29551 8.35106C3.77004 11.9089 9.14874 13.1747 12.634 11.6695C15.4155 10.4721 16.7225 7.18791 15.5496 4.34845C14.6112 2.07347 12.0308 0.995842 9.80223 1.97084C8.02608 2.72346 7.18828 4.8274 7.9423 6.65765C6.93694 4.24582 8.04284 1.47479 10.4054 0.465582C13.3545 -0.800199 16.7392 0.602423 17.9792 3.61293C19.5208 7.35896 17.8116 11.6866 14.1253 13.2773C9.51738 15.2444 4.22245 13.055 2.29551 8.35106Z" fill="#FFFEFE"/>
<path d="M6.4009 12.0971C8.6127 13.4826 11.411 13.7905 13.9746 12.6958C15.6 11.9944 16.8567 10.6945 17.5102 9.03526C18.1637 7.37606 18.1637 5.54581 17.4767 3.88661C16.354 1.184 13.2876 -0.0988907 10.6402 1.04715C10.1878 1.23531 9.76887 1.5261 9.417 1.8511C9.09863 2.03925 8.81378 2.26162 8.56243 2.5182C9.0316 1.71426 9.73536 1.09847 10.5899 0.722156C13.3882 -0.475204 16.6054 0.858998 17.7783 3.71556C18.4988 5.46028 18.5155 7.37606 17.8118 9.13789C17.1415 10.8997 15.8178 12.2681 14.1087 13.0037C10.9083 14.3721 7.356 13.6536 4.90961 11.4642C5.37878 11.7208 5.88146 11.926 6.4009 12.0971Z" fill="url(#paint0_radial_20_360)"/>
<path d="M15.7173 13.226C16.2032 12.0458 17.9961 11.6181 19.1523 12.1313C20.0739 12.5247 20.5095 13.6194 20.1241 14.5602C19.8058 15.3129 18.9512 15.6721 18.2139 15.3471C17.6275 15.0905 17.3426 14.3892 17.594 13.7905C17.2588 14.5944 17.6275 15.501 18.415 15.8431C19.3869 16.2707 20.5263 15.7918 20.9284 14.7997C21.4479 13.551 20.8782 12.1142 19.655 11.5839C18.1302 10.9339 16.3708 11.6695 15.7173 13.226Z" fill="#FBFDFF"/>
<path d="M8.86401 10.2326C10.6066 11.0708 13.1871 9.73657 14.0081 7.95764C14.6616 6.53791 14.0584 4.8445 12.6676 4.1774C11.545 3.64714 10.2212 4.14319 9.70181 5.27213C9.28291 6.1787 9.6683 7.27343 10.5564 7.68396C11.2769 8.02606 12.1147 7.71817 12.4498 6.98264C12.7179 6.40107 12.4833 5.39186 11.9136 5.11818C12.6006 5.44318 12.9022 6.28133 12.5839 6.98264C12.1817 7.85501 11.1596 8.24843 10.2883 7.8379C9.21588 7.32475 8.74671 6.00765 9.2494 4.91292C9.88613 3.54451 11.478 2.94583 12.8352 3.59582C14.5108 4.39977 15.2481 6.45238 14.4605 8.1629C13.4719 10.301 10.9585 11.2418 8.86401 10.2326Z" fill="url(#paint1_radial_20_360)"/>
<path d="M17.9123 12.5418C18.4988 12.2681 19.3701 12.7129 19.6382 13.3115C19.856 13.7905 19.6549 14.355 19.1858 14.5773C18.8171 14.7484 18.3647 14.5944 18.1804 14.201C18.0463 13.8931 18.1636 13.5339 18.4652 13.38C18.6998 13.2602 18.9847 13.3629 19.102 13.6194C19.1858 13.8076 19.1187 14.1497 18.9177 14.2523C19.1522 14.1497 19.2528 13.8589 19.1355 13.6194C19.0014 13.3287 18.6496 13.1918 18.3647 13.3287C17.9961 13.4997 17.8453 13.9444 18.0128 14.3208C18.2307 14.7826 18.7669 14.9879 19.2193 14.7655C19.789 14.4918 20.0236 13.8076 19.7722 13.226C19.4539 12.5076 18.616 12.1997 17.9123 12.5418Z" fill="url(#paint2_radial_20_360)"/>
<path d="M0 12.576C1.29022 11.4471 4.90953 11.8576 6.03219 13.1747C4.44036 11.2931 1.82641 10.951 0 12.576Z" fill="url(#paint3_radial_20_360)"/>
<path d="M2.69769 13.226C3.46847 12.5418 5.63001 12.7984 6.30025 13.5852C5.34515 12.4734 3.78684 12.2681 2.69769 13.226Z" fill="url(#paint4_radial_20_360)"/>
<path d="M25 5.75107C18.6327 4.94713 19.9397 8.84711 19.9397 8.84711C21.4142 7.34185 23.1903 6.8458 23.1903 6.8458C21.1629 7.87211 19.4705 9.65105 19.4705 9.65105L19.2192 10.5918L20.3753 9.27473C22.4698 12.1655 25 5.75107 25 5.75107Z" fill="#94C63D"/>
<path d="M24.5811 6.24712C24.6314 6.12739 24.6817 6.02475 24.7319 5.92212C22.5872 5.68265 21.0959 5.99054 20.4424 6.8287C20.124 7.23922 20.0402 7.70106 20.0402 8.09448C20.0402 8.14579 20.0402 8.19711 20.0402 8.24842C20.057 7.90632 20.1743 7.5129 20.4424 7.1708C21.0959 6.34975 22.5201 6.04186 24.5811 6.24712Z" fill="url(#paint5_linear_20_360)"/>
<path d="M25 5.75107C18.6327 4.94713 19.9397 8.84711 19.9397 8.84711C21.4142 7.34185 23.1903 6.8458 23.1903 6.8458C21.1629 7.87211 19.4705 9.65105 19.4705 9.65105L19.2192 10.5918L20.3753 9.27473C22.4698 12.1655 25 5.75107 25 5.75107Z" fill="#94C63D"/>
<path d="M24.5811 6.24712C24.6314 6.12739 24.6817 6.02475 24.7319 5.92212C22.5872 5.68265 21.0959 5.99054 20.4424 6.8287C20.124 7.23922 20.0402 7.70106 20.0402 8.09448C20.0402 8.14579 20.0402 8.19711 20.0402 8.24842C20.057 7.90632 20.1743 7.5129 20.4424 7.1708C21.0959 6.34975 22.5201 6.04186 24.5811 6.24712Z" fill="url(#paint6_linear_20_360)"/>
<path d="M7.7915 8.04316C7.7915 8.04316 7.97582 7.78659 8.49526 7.8208C8.49526 7.8208 8.29418 7.63264 8.4785 7.5129C8.4785 7.5129 7.23855 8.07737 6.61857 8.74447C6.61857 8.74447 7.18828 8.00895 7.6407 7.75238C7.6407 7.75238 5.94833 6.70896 5.47916 10.0616C5.51267 10.0445 8.46174 9.20631 7.7915 8.04316Z" fill="#94C63D"/>
<path d="M6.70235 8.11158C6.8364 8.04316 6.97045 8.02606 7.1045 8.02606C7.18828 7.94053 7.27206 7.85501 7.3726 7.78659C7.20504 7.73527 6.97045 7.71816 6.71911 7.8379C6.24994 8.06027 5.91482 8.76158 5.7305 9.8392C5.74726 9.8392 5.76401 9.8221 5.78077 9.8221C5.94833 8.91553 6.2667 8.31685 6.70235 8.11158Z" fill="url(#paint7_linear_20_360)"/>
<path d="M7.7915 8.04316C7.7915 8.04316 7.97582 7.78659 8.49526 7.8208C8.49526 7.8208 8.29418 7.63264 8.4785 7.5129C8.4785 7.5129 7.23855 8.07737 6.61857 8.74447C6.61857 8.74447 7.18828 8.00895 7.6407 7.75238C7.6407 7.75238 5.94833 6.70896 5.47916 10.0616C5.51267 10.0445 8.46174 9.20631 7.7915 8.04316Z" fill="#94C63D"/>
<path d="M6.70235 8.11158C6.8364 8.04316 6.97045 8.02606 7.1045 8.02606C7.18828 7.94053 7.27206 7.85501 7.3726 7.78659C7.20504 7.73527 6.97045 7.71816 6.71911 7.8379C6.24994 8.06027 5.91482 8.76158 5.7305 9.8392C5.74726 9.8392 5.76401 9.8221 5.78077 9.8221C5.94833 8.91553 6.2667 8.31685 6.70235 8.11158Z" fill="url(#paint8_linear_20_360)"/>
<defs>
<radialGradient id="paint0_radial_20_360" cx="0" cy="0" r="1" gradientUnits="userSpaceOnUse" gradientTransform="translate(18.7525 6.13056) rotate(180) scale(13.3819 13.6607)">
<stop offset="0.005618" stop-color="#A9D1EF"/>
<stop offset="0.5393" stop-color="#1998D5"/>
<stop offset="1" stop-color="#0073BB"/>
</radialGradient>
<radialGradient id="paint1_radial_20_360" cx="0" cy="0" r="1" gradientUnits="userSpaceOnUse" gradientTransform="translate(11.8912 6.89915) rotate(180) scale(3.27856 3.34686)">
<stop offset="0.005618" stop-color="#A9D1EF"/>
<stop offset="0.5393" stop-color="#1998D5"/>
<stop offset="1" stop-color="#0073BB"/>
</radialGradient>
<radialGradient id="paint2_radial_20_360" cx="0" cy="0" r="1" gradientUnits="userSpaceOnUse" gradientTransform="translate(18.8638 13.5945) rotate(180) scale(1.10401 1.127)">
<stop offset="0.005618" stop-color="#A9D1EF"/>
<stop offset="0.5393" stop-color="#1998D5"/>
<stop offset="1" stop-color="#0073BB"/>
</radialGradient>
<radialGradient id="paint3_radial_20_360" cx="0" cy="0" r="1" gradientUnits="userSpaceOnUse" gradientTransform="translate(4.85359 14.7403) rotate(180) scale(2.62791 2.68266)">
<stop offset="0.005618" stop-color="#A9D1EF"/>
<stop offset="0.5393" stop-color="#1998D5"/>
<stop offset="1" stop-color="#0073BB"/>
</radialGradient>
<radialGradient id="paint4_radial_20_360" cx="0" cy="0" r="1" gradientUnits="userSpaceOnUse" gradientTransform="translate(4.85354 14.7398) rotate(180) scale(2.62792 2.68265)">
<stop offset="0.005618" stop-color="#A9D1EF"/>
<stop offset="0.5393" stop-color="#1998D5"/>
<stop offset="1" stop-color="#0073BB"/>
</radialGradient>
<linearGradient id="paint5_linear_20_360" x1="20" y1="7.03481" x2="24.7036" y2="7.03481" gradientUnits="userSpaceOnUse">
<stop stop-color="#B7D333"/>
<stop offset="0.228" stop-color="#C5DB54"/>
<stop offset="0.7268" stop-color="#EAEFA7"/>
<stop offset="1" stop-color="#FFFBD7"/>
</linearGradient>
<linearGradient id="paint6_linear_20_360" x1="20" y1="7.03481" x2="24.7036" y2="7.03481" gradientUnits="userSpaceOnUse">
<stop stop-color="#B7D333"/>
<stop offset="0.3431" stop-color="#BDD754"/>
<stop offset="1" stop-color="#CBE19C"/>
</linearGradient>
<linearGradient id="paint7_linear_20_360" x1="5.63265" y1="8.78966" x2="7.28403" y2="8.78966" gradientUnits="userSpaceOnUse">
<stop stop-color="#B7D333"/>
<stop offset="0.228" stop-color="#C5DB54"/>
<stop offset="0.7268" stop-color="#EAEFA7"/>
<stop offset="1" stop-color="#FFFBD7"/>
</linearGradient>
<linearGradient id="paint8_linear_20_360" x1="5.63265" y1="8.78966" x2="7.28403" y2="8.78966" gradientUnits="userSpaceOnUse">
<stop stop-color="#B7D333"/>
<stop offset="0.3431" stop-color="#BDD754"/>
<stop offset="1" stop-color="#CBE19C"/>
</linearGradient>
</defs>
</svg>
