<svg width="16" height="16" viewBox="0 0 16 16" fill="none" xmlns="http://www.w3.org/2000/svg">
<g clip-path="url(#clip0_24_7)">
<path d="M15.3917 12.2973C13.967 14.5197 11.4773 15.9938 8.64296 15.9999C4.25193 16.0095 0.646464 12.4576 0.59337 8.0669C0.543433 3.93555 3.61284 0.510646 7.59421 0.000833718C7.67931 -0.0100725 7.73475 0.0872712 7.68303 0.155709C6.72306 1.42636 6.15393 3.0084 6.15393 4.72374C6.15393 8.91321 9.55006 12.3093 13.7395 12.3093C14.2709 12.3093 14.7892 12.2548 15.2897 12.1507C15.3737 12.1332 15.438 12.2251 15.3917 12.2973Z" fill="url(#paint0_linear_24_7)"/>
<path d="M15.2898 12.1506C15.3737 12.1331 15.4379 12.2247 15.3917 12.2969C13.964 14.5242 11.467 16 8.62521 16C4.1888 16 0.592802 12.4036 0.592802 7.96758C0.592802 6.19233 1.16855 4.55177 2.1439 3.22195C1.92246 3.94836 1.80136 4.71846 1.79652 5.5163C1.76943 9.98605 5.3593 13.5987 9.82915 13.5985C11.4489 13.5984 12.9565 13.119 14.2178 12.2941C14.5829 12.2716 14.9407 12.2232 15.2898 12.1506Z" fill="#204EC7"/>
</g>
<defs>
<linearGradient id="paint0_linear_24_7" x1="7.99998" y1="-8.82149e-06" x2="7.99998" y2="15.9999" gradientUnits="userSpaceOnUse">
<stop stop-color="#204EC7"/>
<stop offset="1" stop-color="#C4D0F1"/>
</linearGradient>
<clipPath id="clip0_24_7">
<rect width="16" height="16" fill="white"/>
</clipPath>
</defs>
</svg>
